<?xml version="1.0" encoding="UTF-8"?>
<svg width="662px" height="294px" viewBox="0 0 662 294" version="1.1" xmlns="http://www.w3.org/2000/svg" xmlns:xlink="http://www.w3.org/1999/xlink">
    <title>编组 29</title>
    <g id="页面-1" stroke="none" stroke-width="1" fill="none" fill-rule="evenodd">
        <g id="token" transform="translate(-260.000000, -764.000000)">
            <g id="编组-29" transform="translate(260.000000, 764.000000)">
                <g id="编组-6" opacity="0.200000003" fill="#FFFFFF">
                    <g id="编组-5">
                        <circle id="椭圆形" cx="3" cy="3" r="3"></circle>
                        <circle id="椭圆形备份-5" cx="149" cy="3" r="3"></circle>
                        <circle id="椭圆形备份-9" cx="294" cy="3" r="3"></circle>
                        <circle id="椭圆形备份-13" cx="440" cy="3" r="3"></circle>
                        <circle id="椭圆形备份-17" cx="586" cy="3" r="3"></circle>
                        <circle id="椭圆形备份-2" cx="39" cy="3" r="3"></circle>
                        <circle id="椭圆形备份-6" cx="185" cy="3" r="3"></circle>
                        <circle id="椭圆形备份-10" cx="331" cy="3" r="3"></circle>
                        <circle id="椭圆形备份-14" cx="476" cy="3" r="3"></circle>
                        <circle id="椭圆形备份-18" cx="622" cy="3" r="3"></circle>
                        <circle id="椭圆形备份-3" cx="76" cy="3" r="3"></circle>
                        <circle id="椭圆形备份-7" cx="222" cy="3" r="3"></circle>
                        <circle id="椭圆形备份-11" cx="367" cy="3" r="3"></circle>
                        <circle id="椭圆形备份-15" cx="513" cy="3" r="3"></circle>
                        <circle id="椭圆形备份-19" cx="659" cy="3" r="3"></circle>
                        <circle id="椭圆形备份-4" cx="112" cy="3" r="3"></circle>
                        <circle id="椭圆形备份-8" cx="258" cy="3" r="3"></circle>
                        <circle id="椭圆形备份-12" cx="404" cy="3" r="3"></circle>
                        <circle id="椭圆形备份-16" cx="549" cy="3" r="3"></circle>
                    </g>
                    <g id="编组-5备份-4" transform="translate(0.000000, 144.000000)">
                        <circle id="椭圆形" cx="3" cy="3" r="3"></circle>
                        <circle id="椭圆形备份-5" cx="149" cy="3" r="3"></circle>
                        <circle id="椭圆形备份-9" cx="294" cy="3" r="3"></circle>
                        <circle id="椭圆形备份-13" cx="440" cy="3" r="3"></circle>
                        <circle id="椭圆形备份-17" cx="586" cy="3" r="3"></circle>
                        <circle id="椭圆形备份-2" cx="39" cy="3" r="3"></circle>
                        <circle id="椭圆形备份-6" cx="185" cy="3" r="3"></circle>
                        <circle id="椭圆形备份-10" cx="331" cy="3" r="3"></circle>
                        <circle id="椭圆形备份-14" cx="476" cy="3" r="3"></circle>
                        <circle id="椭圆形备份-18" cx="622" cy="3" r="3"></circle>
                        <circle id="椭圆形备份-3" cx="76" cy="3" r="3"></circle>
                        <circle id="椭圆形备份-7" cx="222" cy="3" r="3"></circle>
                        <circle id="椭圆形备份-11" cx="367" cy="3" r="3"></circle>
                        <circle id="椭圆形备份-15" cx="513" cy="3" r="3"></circle>
                        <circle id="椭圆形备份-19" cx="659" cy="3" r="3"></circle>
                        <circle id="椭圆形备份-4" cx="112" cy="3" r="3"></circle>
                        <circle id="椭圆形备份-8" cx="258" cy="3" r="3"></circle>
                        <circle id="椭圆形备份-12" cx="404" cy="3" r="3"></circle>
                        <circle id="椭圆形备份-16" cx="549" cy="3" r="3"></circle>
                    </g>
                    <g id="编组-5备份" transform="translate(0.000000, 36.000000)">
                        <circle id="椭圆形" cx="3" cy="3" r="3"></circle>
                        <circle id="椭圆形备份-5" cx="149" cy="3" r="3"></circle>
                        <circle id="椭圆形备份-9" cx="294" cy="3" r="3"></circle>
                        <circle id="椭圆形备份-13" cx="440" cy="3" r="3"></circle>
                        <circle id="椭圆形备份-17" cx="586" cy="3" r="3"></circle>
                        <circle id="椭圆形备份-2" cx="39" cy="3" r="3"></circle>
                        <circle id="椭圆形备份-6" cx="185" cy="3" r="3"></circle>
                        <circle id="椭圆形备份-10" cx="331" cy="3" r="3"></circle>
                        <circle id="椭圆形备份-14" cx="476" cy="3" r="3"></circle>
                        <circle id="椭圆形备份-18" cx="622" cy="3" r="3"></circle>
                        <circle id="椭圆形备份-3" cx="76" cy="3" r="3"></circle>
                        <circle id="椭圆形备份-7" cx="222" cy="3" r="3"></circle>
                        <circle id="椭圆形备份-11" cx="367" cy="3" r="3"></circle>
                        <circle id="椭圆形备份-15" cx="513" cy="3" r="3"></circle>
                        <circle id="椭圆形备份-19" cx="659" cy="3" r="3"></circle>
                        <circle id="椭圆形备份-4" cx="112" cy="3" r="3"></circle>
                        <circle id="椭圆形备份-8" cx="258" cy="3" r="3"></circle>
                        <circle id="椭圆形备份-12" cx="404" cy="3" r="3"></circle>
                        <circle id="椭圆形备份-16" cx="549" cy="3" r="3"></circle>
                    </g>
                    <g id="编组-5备份-5" transform="translate(0.000000, 180.000000)">
                        <circle id="椭圆形" cx="3" cy="3" r="3"></circle>
                        <circle id="椭圆形备份-5" cx="149" cy="3" r="3"></circle>
                        <circle id="椭圆形备份-9" cx="294" cy="3" r="3"></circle>
                        <circle id="椭圆形备份-13" cx="440" cy="3" r="3"></circle>
                        <circle id="椭圆形备份-17" cx="586" cy="3" r="3"></circle>
                        <circle id="椭圆形备份-2" cx="39" cy="3" r="3"></circle>
                        <circle id="椭圆形备份-6" cx="185" cy="3" r="3"></circle>
                        <circle id="椭圆形备份-10" cx="331" cy="3" r="3"></circle>
                        <circle id="椭圆形备份-14" cx="476" cy="3" r="3"></circle>
                        <circle id="椭圆形备份-18" cx="622" cy="3" r="3"></circle>
                        <circle id="椭圆形备份-3" cx="76" cy="3" r="3"></circle>
                        <circle id="椭圆形备份-7" cx="222" cy="3" r="3"></circle>
                        <circle id="椭圆形备份-11" cx="367" cy="3" r="3"></circle>
                        <circle id="椭圆形备份-15" cx="513" cy="3" r="3"></circle>
                        <circle id="椭圆形备份-19" cx="659" cy="3" r="3"></circle>
                        <circle id="椭圆形备份-4" cx="112" cy="3" r="3"></circle>
                        <circle id="椭圆形备份-8" cx="258" cy="3" r="3"></circle>
                        <circle id="椭圆形备份-12" cx="404" cy="3" r="3"></circle>
                        <circle id="椭圆形备份-16" cx="549" cy="3" r="3"></circle>
                    </g>
                    <g id="编组-5备份-2" transform="translate(0.000000, 72.000000)">
                        <circle id="椭圆形" cx="3" cy="3" r="3"></circle>
                        <circle id="椭圆形备份-5" cx="149" cy="3" r="3"></circle>
                        <circle id="椭圆形备份-9" cx="294" cy="3" r="3"></circle>
                        <circle id="椭圆形备份-13" cx="440" cy="3" r="3"></circle>
                        <circle id="椭圆形备份-17" cx="586" cy="3" r="3"></circle>
                        <circle id="椭圆形备份-2" cx="39" cy="3" r="3"></circle>
                        <circle id="椭圆形备份-6" cx="185" cy="3" r="3"></circle>
                        <circle id="椭圆形备份-10" cx="331" cy="3" r="3"></circle>
                        <circle id="椭圆形备份-14" cx="476" cy="3" r="3"></circle>
                        <circle id="椭圆形备份-18" cx="622" cy="3" r="3"></circle>
                        <circle id="椭圆形备份-3" cx="76" cy="3" r="3"></circle>
                        <circle id="椭圆形备份-7" cx="222" cy="3" r="3"></circle>
                        <circle id="椭圆形备份-11" cx="367" cy="3" r="3"></circle>
                        <circle id="椭圆形备份-15" cx="513" cy="3" r="3"></circle>
                        <circle id="椭圆形备份-19" cx="659" cy="3" r="3"></circle>
                        <circle id="椭圆形备份-4" cx="112" cy="3" r="3"></circle>
                        <circle id="椭圆形备份-8" cx="258" cy="3" r="3"></circle>
                        <circle id="椭圆形备份-12" cx="404" cy="3" r="3"></circle>
                        <circle id="椭圆形备份-16" cx="549" cy="3" r="3"></circle>
                    </g>
                    <g id="编组-5备份-6" transform="translate(0.000000, 216.000000)">
                        <circle id="椭圆形" cx="3" cy="3" r="3"></circle>
                        <circle id="椭圆形备份-5" cx="149" cy="3" r="3"></circle>
                        <circle id="椭圆形备份-9" cx="294" cy="3" r="3"></circle>
                        <circle id="椭圆形备份-13" cx="440" cy="3" r="3"></circle>
                        <circle id="椭圆形备份-17" cx="586" cy="3" r="3"></circle>
                        <circle id="椭圆形备份-2" cx="39" cy="3" r="3"></circle>
                        <circle id="椭圆形备份-6" cx="185" cy="3" r="3"></circle>
                        <circle id="椭圆形备份-10" cx="331" cy="3" r="3"></circle>
                        <circle id="椭圆形备份-14" cx="476" cy="3" r="3"></circle>
                        <circle id="椭圆形备份-18" cx="622" cy="3" r="3"></circle>
                        <circle id="椭圆形备份-3" cx="76" cy="3" r="3"></circle>
                        <circle id="椭圆形备份-7" cx="222" cy="3" r="3"></circle>
                        <circle id="椭圆形备份-11" cx="367" cy="3" r="3"></circle>
                        <circle id="椭圆形备份-15" cx="513" cy="3" r="3"></circle>
                        <circle id="椭圆形备份-19" cx="659" cy="3" r="3"></circle>
                        <circle id="椭圆形备份-4" cx="112" cy="3" r="3"></circle>
                        <circle id="椭圆形备份-8" cx="258" cy="3" r="3"></circle>
                        <circle id="椭圆形备份-12" cx="404" cy="3" r="3"></circle>
                        <circle id="椭圆形备份-16" cx="549" cy="3" r="3"></circle>
                    </g>
                    <g id="编组-5备份-3" transform="translate(0.000000, 108.000000)">
                        <circle id="椭圆形" cx="3" cy="3" r="3"></circle>
                        <circle id="椭圆形备份-5" cx="149" cy="3" r="3"></circle>
                        <circle id="椭圆形备份-9" cx="294" cy="3" r="3"></circle>
                        <circle id="椭圆形备份-13" cx="440" cy="3" r="3"></circle>
                        <circle id="椭圆形备份-17" cx="586" cy="3" r="3"></circle>
                        <circle id="椭圆形备份-2" cx="39" cy="3" r="3"></circle>
                        <circle id="椭圆形备份-6" cx="185" cy="3" r="3"></circle>
                        <circle id="椭圆形备份-10" cx="331" cy="3" r="3"></circle>
                        <circle id="椭圆形备份-14" cx="476" cy="3" r="3"></circle>
                        <circle id="椭圆形备份-18" cx="622" cy="3" r="3"></circle>
                        <circle id="椭圆形备份-3" cx="76" cy="3" r="3"></circle>
                        <circle id="椭圆形备份-7" cx="222" cy="3" r="3"></circle>
                        <circle id="椭圆形备份-11" cx="367" cy="3" r="3"></circle>
                        <circle id="椭圆形备份-15" cx="513" cy="3" r="3"></circle>
                        <circle id="椭圆形备份-19" cx="659" cy="3" r="3"></circle>
                        <circle id="椭圆形备份-4" cx="112" cy="3" r="3"></circle>
                        <circle id="椭圆形备份-8" cx="258" cy="3" r="3"></circle>
                        <circle id="椭圆形备份-12" cx="404" cy="3" r="3"></circle>
                        <circle id="椭圆形备份-16" cx="549" cy="3" r="3"></circle>
                    </g>
                    <g id="编组-5备份-7" transform="translate(0.000000, 252.000000)">
                        <circle id="椭圆形" cx="3" cy="3" r="3"></circle>
                        <circle id="椭圆形备份-5" cx="149" cy="3" r="3"></circle>
                        <circle id="椭圆形备份-9" cx="294" cy="3" r="3"></circle>
                        <circle id="椭圆形备份-13" cx="440" cy="3" r="3"></circle>
                        <circle id="椭圆形备份-17" cx="586" cy="3" r="3"></circle>
                        <circle id="椭圆形备份-2" cx="39" cy="3" r="3"></circle>
                        <circle id="椭圆形备份-6" cx="185" cy="3" r="3"></circle>
                        <circle id="椭圆形备份-10" cx="331" cy="3" r="3"></circle>
                        <circle id="椭圆形备份-14" cx="476" cy="3" r="3"></circle>
                        <circle id="椭圆形备份-18" cx="622" cy="3" r="3"></circle>
                        <circle id="椭圆形备份-3" cx="76" cy="3" r="3"></circle>
                        <circle id="椭圆形备份-7" cx="222" cy="3" r="3"></circle>
                        <circle id="椭圆形备份-11" cx="367" cy="3" r="3"></circle>
                        <circle id="椭圆形备份-15" cx="513" cy="3" r="3"></circle>
                        <circle id="椭圆形备份-19" cx="659" cy="3" r="3"></circle>
                        <circle id="椭圆形备份-4" cx="112" cy="3" r="3"></circle>
                        <circle id="椭圆形备份-8" cx="258" cy="3" r="3"></circle>
                        <circle id="椭圆形备份-12" cx="404" cy="3" r="3"></circle>
                        <circle id="椭圆形备份-16" cx="549" cy="3" r="3"></circle>
                    </g>
                    <g id="编组-5备份-8" transform="translate(0.000000, 288.000000)">
                        <circle id="椭圆形" cx="3" cy="3" r="3"></circle>
                        <circle id="椭圆形备份-5" cx="149" cy="3" r="3"></circle>
                        <circle id="椭圆形备份-9" cx="294" cy="3" r="3"></circle>
                        <circle id="椭圆形备份-13" cx="440" cy="3" r="3"></circle>
                        <circle id="椭圆形备份-17" cx="586" cy="3" r="3"></circle>
                        <circle id="椭圆形备份-2" cx="39" cy="3" r="3"></circle>
                        <circle id="椭圆形备份-6" cx="185" cy="3" r="3"></circle>
                        <circle id="椭圆形备份-10" cx="331" cy="3" r="3"></circle>
                        <circle id="椭圆形备份-14" cx="476" cy="3" r="3"></circle>
                        <circle id="椭圆形备份-18" cx="622" cy="3" r="3"></circle>
                        <circle id="椭圆形备份-3" cx="76" cy="3" r="3"></circle>
                        <circle id="椭圆形备份-7" cx="222" cy="3" r="3"></circle>
                        <circle id="椭圆形备份-11" cx="367" cy="3" r="3"></circle>
                        <circle id="椭圆形备份-15" cx="513" cy="3" r="3"></circle>
                        <circle id="椭圆形备份-19" cx="659" cy="3" r="3"></circle>
                        <circle id="椭圆形备份-4" cx="112" cy="3" r="3"></circle>
                        <circle id="椭圆形备份-8" cx="258" cy="3" r="3"></circle>
                        <circle id="椭圆形备份-12" cx="404" cy="3" r="3"></circle>
                        <circle id="椭圆形备份-16" cx="549" cy="3" r="3"></circle>
                    </g>
                </g>
                <g id="编组-13" transform="translate(143.000000, 69.000000)">
                    <g id="编组-12" transform="translate(123.151076, 0.000000)" stroke="#FFFFFF" stroke-width="5">
                        <path d="M0.8,0 L132.0253,0 C132.467128,-8.11624501e-17 132.8253,0.3581722 132.8253,0.8 L132.8253,164.574648 C132.8253,165.016476 132.467128,165.374648 132.0253,165.374648 C131.878274,165.374648 131.734092,165.334131 131.608587,165.257547 L66.8293631,125.728462 C66.5734924,125.572326 66.2518077,125.572326 65.995937,125.728462 L1.21671306,165.257547 C0.839558689,165.487691 0.347245869,165.368516 0.1171016,164.991361 C0.0405170743,164.865857 8.56672277e-15,164.721674 0,164.574648 L0,0.8 C-5.41083001e-17,0.3581722 0.3581722,-2.69439511e-15 0.8,0 Z" id="矩形"></path>
                        <line x1="26.4050295" y1="40.7042254" x2="106.420271" y2="40.7042254" id="直线-2" stroke-linecap="round"></line>
                        <line x1="64.8123452" y1="64.6478873" x2="106.420271" y2="64.6478873" id="直线-2备份" stroke-linecap="round"></line>
                        <line x1="64.8123452" y1="88.5915493" x2="106.420271" y2="88.5915493" id="直线-2备份-2" stroke-linecap="round"></line>
                        <polyline id="路径" stroke-linecap="round" stroke-linejoin="round" transform="translate(29.621083, 77.417840) rotate(-315.000000) translate(-29.621083, -77.417840) " points="19.3270972 70.5404547 39.9150692 67.1238544 36.4984689 87.7118264"></polyline>
                    </g>
                    <g id="编组-9" transform="translate(0.000000, 14.366197)" stroke="#FFFFFF" stroke-width="5">
                        <g id="智能优化_smart-optimization" stroke-linecap="round" stroke-linejoin="round">
                            <path d="M31.1338691,67.0422535 C36.2878108,67.0422535 45.1002094,60.3380282 45.1002094,33.5211268 C45.1002094,6.70422535 36.2878108,0 31.1338691,0 C25.9800874,0 17.1675288,7.15599437 17.1675288,33.5211268 C17.1675288,59.8862911 25.9800874,67.0422535 31.1338691,67.0422535 Z" id="路径"></path>
                            <path d="M0.895789443,51.0798122 C3.4727603,55.5689296 13.9265915,59.7330516 38.1169592,45.6861033 C62.3071669,31.6391549 63.9485995,20.4515587 61.3716287,15.9624413 C58.7946578,11.4733239 47.933389,7.54579718 24.1506189,21.3561502 C0.36778487,35.1663756 -1.6811174,46.5906948 0.895789443,51.0798122 Z" id="路径"></path>
                            <path d="M0.895613409,15.9624413 C-1.68129343,20.4515587 -0.0399247891,31.6391549 24.1504589,45.6861033 C48.3408266,59.7330516 58.7944978,55.5689296 61.3714687,51.0798122 C63.9484395,46.5906948 61.8995692,35.1663756 38.1166392,21.3561502 C14.3338691,7.54579718 3.47260027,11.4733239 0.895613409,15.9624413 Z" id="路径"></path>
                        </g>
                        <path d="M36.7219822,75.001592 C36.7410448,104.980464 61.1127071,129.298594 91.1576135,129.317657" id="路径" transform="translate(63.939798, 102.159624) rotate(-15.000000) translate(-63.939798, -102.159624) "></path>
                        <ellipse id="椭圆形" cx="100.746809" cy="118.920188" rx="5.60106687" ry="5.58685446"></ellipse>
                    </g>
                    <g id="编组-10" transform="translate(271.466266, 6.628969)">
                        <g id="编组-7" transform="translate(34.919712, 75.577603)">
                            <ellipse id="椭圆形" stroke="#FFFC04" stroke-width="5" cx="36.8070109" cy="36.713615" rx="26.4050295" ry="26.3380282"></ellipse>
                            <path d="M36.8070109,73.42723 C57.1349617,73.42723 73.6140218,56.9899847 73.6140218,36.713615 C73.6140218,16.4372453 57.1349617,1.42108547e-14 36.8070109,1.42108547e-14 C16.4790601,1.42108547e-14 0,16.4372453 0,36.713615 C0,56.9899847 16.4790601,73.42723 36.8070109,73.42723 Z" id="椭圆形" stroke="#FFFC04" stroke-width="5" stroke-dasharray="4.800000000000001,4.800000000000001"></path>
                            <text id="$" font-family="Futura-Medium, Futura" font-size="35.2" font-weight="400" fill="#FFFC04">
                                <tspan x="25.6048771" y="50.5140845">$</tspan>
                            </text>
                        </g>
                        <path d="M60.5372227,60.4351664 C60.5181601,30.4562947 36.1464979,6.13816412 6.10159144,6.11910154" id="路径" stroke="#FFFFFF" stroke-width="5" transform="translate(33.319407, 33.277134) rotate(-15.000000) translate(-33.319407, -33.277134) "></path>
                        <ellipse id="椭圆形备份" stroke="#FFFFFF" stroke-width="5" cx="66.9258083" cy="56.4226739" rx="5.60106687" ry="5.58685446"></ellipse>
                    </g>
                </g>
            </g>
        </g>
    </g>
</svg>