<?xml version="1.0" encoding="UTF-8"?>
<svg width="662px" height="294px" viewBox="0 0 662 294" version="1.1" xmlns="http://www.w3.org/2000/svg" xmlns:xlink="http://www.w3.org/1999/xlink">
    <title>编组 32</title>
    <g id="页面-1" stroke="none" stroke-width="1" fill="none" fill-rule="evenodd">
        <g id="token" transform="translate(-260.000000, -1281.000000)">
            <g id="编组-32" transform="translate(260.000000, 1281.000000)">
                <g id="编组-6备份-2" opacity="0.200000003" fill="#FFFFFF">
                    <g id="编组-5">
                        <circle id="椭圆形" cx="3" cy="3" r="3"></circle>
                        <circle id="椭圆形备份-5" cx="149" cy="3" r="3"></circle>
                        <circle id="椭圆形备份-9" cx="294" cy="3" r="3"></circle>
                        <circle id="椭圆形备份-13" cx="440" cy="3" r="3"></circle>
                        <circle id="椭圆形备份-17" cx="586" cy="3" r="3"></circle>
                        <circle id="椭圆形备份-2" cx="39" cy="3" r="3"></circle>
                        <circle id="椭圆形备份-6" cx="185" cy="3" r="3"></circle>
                        <circle id="椭圆形备份-10" cx="331" cy="3" r="3"></circle>
                        <circle id="椭圆形备份-14" cx="476" cy="3" r="3"></circle>
                        <circle id="椭圆形备份-18" cx="622" cy="3" r="3"></circle>
                        <circle id="椭圆形备份-3" cx="76" cy="3" r="3"></circle>
                        <circle id="椭圆形备份-7" cx="222" cy="3" r="3"></circle>
                        <circle id="椭圆形备份-11" cx="367" cy="3" r="3"></circle>
                        <circle id="椭圆形备份-15" cx="513" cy="3" r="3"></circle>
                        <circle id="椭圆形备份-19" cx="659" cy="3" r="3"></circle>
                        <circle id="椭圆形备份-4" cx="112" cy="3" r="3"></circle>
                        <circle id="椭圆形备份-8" cx="258" cy="3" r="3"></circle>
                        <circle id="椭圆形备份-12" cx="404" cy="3" r="3"></circle>
                        <circle id="椭圆形备份-16" cx="549" cy="3" r="3"></circle>
                    </g>
                    <g id="编组-5备份-4" transform="translate(0.000000, 144.000000)">
                        <circle id="椭圆形" cx="3" cy="3" r="3"></circle>
                        <circle id="椭圆形备份-5" cx="149" cy="3" r="3"></circle>
                        <circle id="椭圆形备份-9" cx="294" cy="3" r="3"></circle>
                        <circle id="椭圆形备份-13" cx="440" cy="3" r="3"></circle>
                        <circle id="椭圆形备份-17" cx="586" cy="3" r="3"></circle>
                        <circle id="椭圆形备份-2" cx="39" cy="3" r="3"></circle>
                        <circle id="椭圆形备份-6" cx="185" cy="3" r="3"></circle>
                        <circle id="椭圆形备份-10" cx="331" cy="3" r="3"></circle>
                        <circle id="椭圆形备份-14" cx="476" cy="3" r="3"></circle>
                        <circle id="椭圆形备份-18" cx="622" cy="3" r="3"></circle>
                        <circle id="椭圆形备份-3" cx="76" cy="3" r="3"></circle>
                        <circle id="椭圆形备份-7" cx="222" cy="3" r="3"></circle>
                        <circle id="椭圆形备份-11" cx="367" cy="3" r="3"></circle>
                        <circle id="椭圆形备份-15" cx="513" cy="3" r="3"></circle>
                        <circle id="椭圆形备份-19" cx="659" cy="3" r="3"></circle>
                        <circle id="椭圆形备份-4" cx="112" cy="3" r="3"></circle>
                        <circle id="椭圆形备份-8" cx="258" cy="3" r="3"></circle>
                        <circle id="椭圆形备份-12" cx="404" cy="3" r="3"></circle>
                        <circle id="椭圆形备份-16" cx="549" cy="3" r="3"></circle>
                    </g>
                    <g id="编组-5备份" transform="translate(0.000000, 36.000000)">
                        <circle id="椭圆形" cx="3" cy="3" r="3"></circle>
                        <circle id="椭圆形备份-5" cx="149" cy="3" r="3"></circle>
                        <circle id="椭圆形备份-9" cx="294" cy="3" r="3"></circle>
                        <circle id="椭圆形备份-13" cx="440" cy="3" r="3"></circle>
                        <circle id="椭圆形备份-17" cx="586" cy="3" r="3"></circle>
                        <circle id="椭圆形备份-2" cx="39" cy="3" r="3"></circle>
                        <circle id="椭圆形备份-6" cx="185" cy="3" r="3"></circle>
                        <circle id="椭圆形备份-10" cx="331" cy="3" r="3"></circle>
                        <circle id="椭圆形备份-14" cx="476" cy="3" r="3"></circle>
                        <circle id="椭圆形备份-18" cx="622" cy="3" r="3"></circle>
                        <circle id="椭圆形备份-3" cx="76" cy="3" r="3"></circle>
                        <circle id="椭圆形备份-7" cx="222" cy="3" r="3"></circle>
                        <circle id="椭圆形备份-11" cx="367" cy="3" r="3"></circle>
                        <circle id="椭圆形备份-15" cx="513" cy="3" r="3"></circle>
                        <circle id="椭圆形备份-19" cx="659" cy="3" r="3"></circle>
                        <circle id="椭圆形备份-4" cx="112" cy="3" r="3"></circle>
                        <circle id="椭圆形备份-8" cx="258" cy="3" r="3"></circle>
                        <circle id="椭圆形备份-12" cx="404" cy="3" r="3"></circle>
                        <circle id="椭圆形备份-16" cx="549" cy="3" r="3"></circle>
                    </g>
                    <g id="编组-5备份-5" transform="translate(0.000000, 180.000000)">
                        <circle id="椭圆形" cx="3" cy="3" r="3"></circle>
                        <circle id="椭圆形备份-5" cx="149" cy="3" r="3"></circle>
                        <circle id="椭圆形备份-9" cx="294" cy="3" r="3"></circle>
                        <circle id="椭圆形备份-13" cx="440" cy="3" r="3"></circle>
                        <circle id="椭圆形备份-17" cx="586" cy="3" r="3"></circle>
                        <circle id="椭圆形备份-2" cx="39" cy="3" r="3"></circle>
                        <circle id="椭圆形备份-6" cx="185" cy="3" r="3"></circle>
                        <circle id="椭圆形备份-10" cx="331" cy="3" r="3"></circle>
                        <circle id="椭圆形备份-14" cx="476" cy="3" r="3"></circle>
                        <circle id="椭圆形备份-18" cx="622" cy="3" r="3"></circle>
                        <circle id="椭圆形备份-3" cx="76" cy="3" r="3"></circle>
                        <circle id="椭圆形备份-7" cx="222" cy="3" r="3"></circle>
                        <circle id="椭圆形备份-11" cx="367" cy="3" r="3"></circle>
                        <circle id="椭圆形备份-15" cx="513" cy="3" r="3"></circle>
                        <circle id="椭圆形备份-19" cx="659" cy="3" r="3"></circle>
                        <circle id="椭圆形备份-4" cx="112" cy="3" r="3"></circle>
                        <circle id="椭圆形备份-8" cx="258" cy="3" r="3"></circle>
                        <circle id="椭圆形备份-12" cx="404" cy="3" r="3"></circle>
                        <circle id="椭圆形备份-16" cx="549" cy="3" r="3"></circle>
                    </g>
                    <g id="编组-5备份-2" transform="translate(0.000000, 72.000000)">
                        <circle id="椭圆形" cx="3" cy="3" r="3"></circle>
                        <circle id="椭圆形备份-5" cx="149" cy="3" r="3"></circle>
                        <circle id="椭圆形备份-9" cx="294" cy="3" r="3"></circle>
                        <circle id="椭圆形备份-13" cx="440" cy="3" r="3"></circle>
                        <circle id="椭圆形备份-17" cx="586" cy="3" r="3"></circle>
                        <circle id="椭圆形备份-2" cx="39" cy="3" r="3"></circle>
                        <circle id="椭圆形备份-6" cx="185" cy="3" r="3"></circle>
                        <circle id="椭圆形备份-10" cx="331" cy="3" r="3"></circle>
                        <circle id="椭圆形备份-14" cx="476" cy="3" r="3"></circle>
                        <circle id="椭圆形备份-18" cx="622" cy="3" r="3"></circle>
                        <circle id="椭圆形备份-3" cx="76" cy="3" r="3"></circle>
                        <circle id="椭圆形备份-7" cx="222" cy="3" r="3"></circle>
                        <circle id="椭圆形备份-11" cx="367" cy="3" r="3"></circle>
                        <circle id="椭圆形备份-15" cx="513" cy="3" r="3"></circle>
                        <circle id="椭圆形备份-19" cx="659" cy="3" r="3"></circle>
                        <circle id="椭圆形备份-4" cx="112" cy="3" r="3"></circle>
                        <circle id="椭圆形备份-8" cx="258" cy="3" r="3"></circle>
                        <circle id="椭圆形备份-12" cx="404" cy="3" r="3"></circle>
                        <circle id="椭圆形备份-16" cx="549" cy="3" r="3"></circle>
                    </g>
                    <g id="编组-5备份-6" transform="translate(0.000000, 216.000000)">
                        <circle id="椭圆形" cx="3" cy="3" r="3"></circle>
                        <circle id="椭圆形备份-5" cx="149" cy="3" r="3"></circle>
                        <circle id="椭圆形备份-9" cx="294" cy="3" r="3"></circle>
                        <circle id="椭圆形备份-13" cx="440" cy="3" r="3"></circle>
                        <circle id="椭圆形备份-17" cx="586" cy="3" r="3"></circle>
                        <circle id="椭圆形备份-2" cx="39" cy="3" r="3"></circle>
                        <circle id="椭圆形备份-6" cx="185" cy="3" r="3"></circle>
                        <circle id="椭圆形备份-10" cx="331" cy="3" r="3"></circle>
                        <circle id="椭圆形备份-14" cx="476" cy="3" r="3"></circle>
                        <circle id="椭圆形备份-18" cx="622" cy="3" r="3"></circle>
                        <circle id="椭圆形备份-3" cx="76" cy="3" r="3"></circle>
                        <circle id="椭圆形备份-7" cx="222" cy="3" r="3"></circle>
                        <circle id="椭圆形备份-11" cx="367" cy="3" r="3"></circle>
                        <circle id="椭圆形备份-15" cx="513" cy="3" r="3"></circle>
                        <circle id="椭圆形备份-19" cx="659" cy="3" r="3"></circle>
                        <circle id="椭圆形备份-4" cx="112" cy="3" r="3"></circle>
                        <circle id="椭圆形备份-8" cx="258" cy="3" r="3"></circle>
                        <circle id="椭圆形备份-12" cx="404" cy="3" r="3"></circle>
                        <circle id="椭圆形备份-16" cx="549" cy="3" r="3"></circle>
                    </g>
                    <g id="编组-5备份-3" transform="translate(0.000000, 108.000000)">
                        <circle id="椭圆形" cx="3" cy="3" r="3"></circle>
                        <circle id="椭圆形备份-5" cx="149" cy="3" r="3"></circle>
                        <circle id="椭圆形备份-9" cx="294" cy="3" r="3"></circle>
                        <circle id="椭圆形备份-13" cx="440" cy="3" r="3"></circle>
                        <circle id="椭圆形备份-17" cx="586" cy="3" r="3"></circle>
                        <circle id="椭圆形备份-2" cx="39" cy="3" r="3"></circle>
                        <circle id="椭圆形备份-6" cx="185" cy="3" r="3"></circle>
                        <circle id="椭圆形备份-10" cx="331" cy="3" r="3"></circle>
                        <circle id="椭圆形备份-14" cx="476" cy="3" r="3"></circle>
                        <circle id="椭圆形备份-18" cx="622" cy="3" r="3"></circle>
                        <circle id="椭圆形备份-3" cx="76" cy="3" r="3"></circle>
                        <circle id="椭圆形备份-7" cx="222" cy="3" r="3"></circle>
                        <circle id="椭圆形备份-11" cx="367" cy="3" r="3"></circle>
                        <circle id="椭圆形备份-15" cx="513" cy="3" r="3"></circle>
                        <circle id="椭圆形备份-19" cx="659" cy="3" r="3"></circle>
                        <circle id="椭圆形备份-4" cx="112" cy="3" r="3"></circle>
                        <circle id="椭圆形备份-8" cx="258" cy="3" r="3"></circle>
                        <circle id="椭圆形备份-12" cx="404" cy="3" r="3"></circle>
                        <circle id="椭圆形备份-16" cx="549" cy="3" r="3"></circle>
                    </g>
                    <g id="编组-5备份-7" transform="translate(0.000000, 252.000000)">
                        <circle id="椭圆形" cx="3" cy="3" r="3"></circle>
                        <circle id="椭圆形备份-5" cx="149" cy="3" r="3"></circle>
                        <circle id="椭圆形备份-9" cx="294" cy="3" r="3"></circle>
                        <circle id="椭圆形备份-13" cx="440" cy="3" r="3"></circle>
                        <circle id="椭圆形备份-17" cx="586" cy="3" r="3"></circle>
                        <circle id="椭圆形备份-2" cx="39" cy="3" r="3"></circle>
                        <circle id="椭圆形备份-6" cx="185" cy="3" r="3"></circle>
                        <circle id="椭圆形备份-10" cx="331" cy="3" r="3"></circle>
                        <circle id="椭圆形备份-14" cx="476" cy="3" r="3"></circle>
                        <circle id="椭圆形备份-18" cx="622" cy="3" r="3"></circle>
                        <circle id="椭圆形备份-3" cx="76" cy="3" r="3"></circle>
                        <circle id="椭圆形备份-7" cx="222" cy="3" r="3"></circle>
                        <circle id="椭圆形备份-11" cx="367" cy="3" r="3"></circle>
                        <circle id="椭圆形备份-15" cx="513" cy="3" r="3"></circle>
                        <circle id="椭圆形备份-19" cx="659" cy="3" r="3"></circle>
                        <circle id="椭圆形备份-4" cx="112" cy="3" r="3"></circle>
                        <circle id="椭圆形备份-8" cx="258" cy="3" r="3"></circle>
                        <circle id="椭圆形备份-12" cx="404" cy="3" r="3"></circle>
                        <circle id="椭圆形备份-16" cx="549" cy="3" r="3"></circle>
                    </g>
                    <g id="编组-5备份-8" transform="translate(0.000000, 288.000000)">
                        <circle id="椭圆形" cx="3" cy="3" r="3"></circle>
                        <circle id="椭圆形备份-5" cx="149" cy="3" r="3"></circle>
                        <circle id="椭圆形备份-9" cx="294" cy="3" r="3"></circle>
                        <circle id="椭圆形备份-13" cx="440" cy="3" r="3"></circle>
                        <circle id="椭圆形备份-17" cx="586" cy="3" r="3"></circle>
                        <circle id="椭圆形备份-2" cx="39" cy="3" r="3"></circle>
                        <circle id="椭圆形备份-6" cx="185" cy="3" r="3"></circle>
                        <circle id="椭圆形备份-10" cx="331" cy="3" r="3"></circle>
                        <circle id="椭圆形备份-14" cx="476" cy="3" r="3"></circle>
                        <circle id="椭圆形备份-18" cx="622" cy="3" r="3"></circle>
                        <circle id="椭圆形备份-3" cx="76" cy="3" r="3"></circle>
                        <circle id="椭圆形备份-7" cx="222" cy="3" r="3"></circle>
                        <circle id="椭圆形备份-11" cx="367" cy="3" r="3"></circle>
                        <circle id="椭圆形备份-15" cx="513" cy="3" r="3"></circle>
                        <circle id="椭圆形备份-19" cx="659" cy="3" r="3"></circle>
                        <circle id="椭圆形备份-4" cx="112" cy="3" r="3"></circle>
                        <circle id="椭圆形备份-8" cx="258" cy="3" r="3"></circle>
                        <circle id="椭圆形备份-12" cx="404" cy="3" r="3"></circle>
                        <circle id="椭圆形备份-16" cx="549" cy="3" r="3"></circle>
                    </g>
                </g>
                <polyline id="路径" stroke="#FFFFFF" stroke-width="5" points="404.43076 103 436 103 436 143.163044 436 217 291.902979 217 228 217 228 103 259.63763 103"></polyline>
                <rect id="矩形" stroke="#FFFC04" stroke-width="5" x="292" y="62" width="80" height="100"></rect>
                <polygon id="路径" fill="#FFFC04" points="312.997866 114.56338 317.988466 109.56338 327.969665 119.56338 347.932064 99.5633803 352.922664 104.56338 327.969665 129.56338"></polygon>
                <rect id="矩形" fill="#FFFFFF" x="275" y="160" width="114" height="8"></rect>
                <path d="M186.388043,124.656526 C170.093446,132.147473 160.72973,140.907608 160.72973,150.268571 C160.72973,177.882809 242.213906,200.268571 342.72973,200.268571 C443.245555,200.268571 524.72973,177.882809 524.72973,150.268571 C524.72973,134.451352 497.995516,120.349548 456.263658,111.187491" id="路径" stroke="#FFFFFF" stroke-width="5" stroke-dasharray="8,11" transform="translate(342.729730, 155.728031) rotate(-30.000000) translate(-342.729730, -155.728031) "></path>
                <circle id="椭圆形" fill="#FFFFFF" cx="410.5" cy="63.5" r="11.5"></circle>
                <circle id="椭圆形备份-23" stroke="#FFFFFF" stroke-width="5" cx="197.5" cy="196" r="11"></circle>
            </g>
        </g>
    </g>
</svg>