<?xml version="1.0" encoding="UTF-8"?>
<svg width="25px" height="25px" viewBox="0 0 25 25" version="1.1" xmlns="http://www.w3.org/2000/svg" xmlns:xlink="http://www.w3.org/1999/xlink">
    <title>编组 26</title>
    <g id="页面-1" stroke="none" stroke-width="1" fill="none" fill-rule="evenodd">
        <g id="首页-整个背景" transform="translate(-1530.000000, -21.000000)">
            <g id="编组-26" transform="translate(1530.000000, 21.000000)">
                <rect id="矩形" fill="#000000" x="0" y="0" width="25" height="25" rx="1.8"></rect>
                <path d="M20.8116897,3.57142857 L4.30588082,3.57142857 C3.9089329,3.57142857 3.58823529,3.89062789 3.58823529,4.28571276 L3.58823529,20.714211 C3.58823529,21.109334 3.9089329,21.4285714 4.30588082,21.4285714 L20.8116897,21.4285714 C21.2086721,21.4285714 21.5294118,21.109334 21.5294118,20.714211 L21.5294118,4.28571276 C21.5294118,3.89062789 21.2086721,3.57142857 20.8116897,3.57142857 Z M18.2999686,8.16293878 L17.3849801,9.03569882 C17.3042211,9.09597298 17.2660998,9.19418229 17.2817923,9.29016685 L17.2817923,15.7120122 C17.2660998,15.8102215 17.3042211,15.9084308 17.3849801,15.9664878 L18.2820562,16.8392479 L18.2820562,17.033457 L13.7788401,17.033457 L13.7788401,16.8481622 L14.7050047,15.9530783 C14.7969399,15.8615738 14.7969399,15.834831 14.7969399,15.6986027 L14.7969399,10.5021947 L12.2179323,17.0111332 L11.870324,17.0111332 L8.86965474,10.5021947 L8.86965474,14.8660711 C8.84274782,15.0490803 8.90778373,15.2343751 9.03785554,15.366032 L10.2443957,16.8191336 L10.2443957,17.0133428 L6.81764017,17.0133428 L6.81764017,16.8191336 L8.02418028,15.366032 C8.15425209,15.2343751 8.21032413,15.0468708 8.18116667,14.8660711 L8.18116667,9.82141905 C8.19686684,9.68078697 8.14303769,9.54462726 8.03539469,9.44865032 L6.96341216,8.16293878 L6.96341216,7.96873729 L10.293739,7.96873729 L12.863775,13.5825691 L15.1266358,7.97320204 L18.2999686,7.97320204 L18.2999686,8.16293878 Z" id="形状" fill="#FFFFFF" fill-rule="nonzero"></path>
            </g>
        </g>
    </g>
</svg>