<?xml version="1.0" encoding="UTF-8"?>
<svg width="662px" height="294px" viewBox="0 0 662 294" version="1.1" xmlns="http://www.w3.org/2000/svg" xmlns:xlink="http://www.w3.org/1999/xlink">
    <title>编组 40</title>
    <g id="页面-1" stroke="none" stroke-width="1" fill="none" fill-rule="evenodd">
        <g id="node" transform="translate(-998.000000, -3933.000000)">
            <g id="编组-40" transform="translate(998.000000, 3933.000000)">
                <g id="编组-35" fill="#FFFFFF" opacity="0.200000003">
                    <g id="编组-6备份-3">
                        <g id="编组-5">
                            <circle id="椭圆形" cx="3" cy="3" r="3"></circle>
                            <circle id="椭圆形备份-5" cx="149" cy="3" r="3"></circle>
                            <circle id="椭圆形备份-9" cx="294" cy="3" r="3"></circle>
                            <circle id="椭圆形备份-13" cx="440" cy="3" r="3"></circle>
                            <circle id="椭圆形备份-17" cx="586" cy="3" r="3"></circle>
                            <circle id="椭圆形备份-2" cx="39" cy="3" r="3"></circle>
                            <circle id="椭圆形备份-6" cx="185" cy="3" r="3"></circle>
                            <circle id="椭圆形备份-10" cx="331" cy="3" r="3"></circle>
                            <circle id="椭圆形备份-14" cx="476" cy="3" r="3"></circle>
                            <circle id="椭圆形备份-18" cx="622" cy="3" r="3"></circle>
                            <circle id="椭圆形备份-3" cx="76" cy="3" r="3"></circle>
                            <circle id="椭圆形备份-7" cx="222" cy="3" r="3"></circle>
                            <circle id="椭圆形备份-11" cx="367" cy="3" r="3"></circle>
                            <circle id="椭圆形备份-15" cx="513" cy="3" r="3"></circle>
                            <circle id="椭圆形备份-19" cx="659" cy="3" r="3"></circle>
                            <circle id="椭圆形备份-4" cx="112" cy="3" r="3"></circle>
                            <circle id="椭圆形备份-8" cx="258" cy="3" r="3"></circle>
                            <circle id="椭圆形备份-12" cx="404" cy="3" r="3"></circle>
                            <circle id="椭圆形备份-16" cx="549" cy="3" r="3"></circle>
                        </g>
                        <g id="编组-5备份-4" transform="translate(0.000000, 144.000000)">
                            <circle id="椭圆形" cx="3" cy="3" r="3"></circle>
                            <circle id="椭圆形备份-5" cx="149" cy="3" r="3"></circle>
                            <circle id="椭圆形备份-9" cx="294" cy="3" r="3"></circle>
                            <circle id="椭圆形备份-13" cx="440" cy="3" r="3"></circle>
                            <circle id="椭圆形备份-17" cx="586" cy="3" r="3"></circle>
                            <circle id="椭圆形备份-2" cx="39" cy="3" r="3"></circle>
                            <circle id="椭圆形备份-6" cx="185" cy="3" r="3"></circle>
                            <circle id="椭圆形备份-10" cx="331" cy="3" r="3"></circle>
                            <circle id="椭圆形备份-14" cx="476" cy="3" r="3"></circle>
                            <circle id="椭圆形备份-18" cx="622" cy="3" r="3"></circle>
                            <circle id="椭圆形备份-3" cx="76" cy="3" r="3"></circle>
                            <circle id="椭圆形备份-7" cx="222" cy="3" r="3"></circle>
                            <circle id="椭圆形备份-11" cx="367" cy="3" r="3"></circle>
                            <circle id="椭圆形备份-15" cx="513" cy="3" r="3"></circle>
                            <circle id="椭圆形备份-19" cx="659" cy="3" r="3"></circle>
                            <circle id="椭圆形备份-4" cx="112" cy="3" r="3"></circle>
                            <circle id="椭圆形备份-8" cx="258" cy="3" r="3"></circle>
                            <circle id="椭圆形备份-12" cx="404" cy="3" r="3"></circle>
                            <circle id="椭圆形备份-16" cx="549" cy="3" r="3"></circle>
                        </g>
                        <g id="编组-5备份" transform="translate(0.000000, 36.000000)">
                            <circle id="椭圆形" cx="3" cy="3" r="3"></circle>
                            <circle id="椭圆形备份-5" cx="149" cy="3" r="3"></circle>
                            <circle id="椭圆形备份-9" cx="294" cy="3" r="3"></circle>
                            <circle id="椭圆形备份-13" cx="440" cy="3" r="3"></circle>
                            <circle id="椭圆形备份-17" cx="586" cy="3" r="3"></circle>
                            <circle id="椭圆形备份-2" cx="39" cy="3" r="3"></circle>
                            <circle id="椭圆形备份-6" cx="185" cy="3" r="3"></circle>
                            <circle id="椭圆形备份-10" cx="331" cy="3" r="3"></circle>
                            <circle id="椭圆形备份-14" cx="476" cy="3" r="3"></circle>
                            <circle id="椭圆形备份-18" cx="622" cy="3" r="3"></circle>
                            <circle id="椭圆形备份-3" cx="76" cy="3" r="3"></circle>
                            <circle id="椭圆形备份-7" cx="222" cy="3" r="3"></circle>
                            <circle id="椭圆形备份-11" cx="367" cy="3" r="3"></circle>
                            <circle id="椭圆形备份-15" cx="513" cy="3" r="3"></circle>
                            <circle id="椭圆形备份-19" cx="659" cy="3" r="3"></circle>
                            <circle id="椭圆形备份-4" cx="112" cy="3" r="3"></circle>
                            <circle id="椭圆形备份-8" cx="258" cy="3" r="3"></circle>
                            <circle id="椭圆形备份-12" cx="404" cy="3" r="3"></circle>
                            <circle id="椭圆形备份-16" cx="549" cy="3" r="3"></circle>
                        </g>
                        <g id="编组-5备份-5" transform="translate(0.000000, 180.000000)">
                            <circle id="椭圆形" cx="3" cy="3" r="3"></circle>
                            <circle id="椭圆形备份-5" cx="149" cy="3" r="3"></circle>
                            <circle id="椭圆形备份-9" cx="294" cy="3" r="3"></circle>
                            <circle id="椭圆形备份-13" cx="440" cy="3" r="3"></circle>
                            <circle id="椭圆形备份-17" cx="586" cy="3" r="3"></circle>
                            <circle id="椭圆形备份-2" cx="39" cy="3" r="3"></circle>
                            <circle id="椭圆形备份-6" cx="185" cy="3" r="3"></circle>
                            <circle id="椭圆形备份-10" cx="331" cy="3" r="3"></circle>
                            <circle id="椭圆形备份-14" cx="476" cy="3" r="3"></circle>
                            <circle id="椭圆形备份-18" cx="622" cy="3" r="3"></circle>
                            <circle id="椭圆形备份-3" cx="76" cy="3" r="3"></circle>
                            <circle id="椭圆形备份-7" cx="222" cy="3" r="3"></circle>
                            <circle id="椭圆形备份-11" cx="367" cy="3" r="3"></circle>
                            <circle id="椭圆形备份-15" cx="513" cy="3" r="3"></circle>
                            <circle id="椭圆形备份-19" cx="659" cy="3" r="3"></circle>
                            <circle id="椭圆形备份-4" cx="112" cy="3" r="3"></circle>
                            <circle id="椭圆形备份-8" cx="258" cy="3" r="3"></circle>
                            <circle id="椭圆形备份-12" cx="404" cy="3" r="3"></circle>
                            <circle id="椭圆形备份-16" cx="549" cy="3" r="3"></circle>
                        </g>
                        <g id="编组-5备份-2" transform="translate(0.000000, 72.000000)">
                            <circle id="椭圆形" cx="3" cy="3" r="3"></circle>
                            <circle id="椭圆形备份-5" cx="149" cy="3" r="3"></circle>
                            <circle id="椭圆形备份-9" cx="294" cy="3" r="3"></circle>
                            <circle id="椭圆形备份-13" cx="440" cy="3" r="3"></circle>
                            <circle id="椭圆形备份-17" cx="586" cy="3" r="3"></circle>
                            <circle id="椭圆形备份-2" cx="39" cy="3" r="3"></circle>
                            <circle id="椭圆形备份-6" cx="185" cy="3" r="3"></circle>
                            <circle id="椭圆形备份-10" cx="331" cy="3" r="3"></circle>
                            <circle id="椭圆形备份-14" cx="476" cy="3" r="3"></circle>
                            <circle id="椭圆形备份-18" cx="622" cy="3" r="3"></circle>
                            <circle id="椭圆形备份-3" cx="76" cy="3" r="3"></circle>
                            <circle id="椭圆形备份-7" cx="222" cy="3" r="3"></circle>
                            <circle id="椭圆形备份-11" cx="367" cy="3" r="3"></circle>
                            <circle id="椭圆形备份-15" cx="513" cy="3" r="3"></circle>
                            <circle id="椭圆形备份-19" cx="659" cy="3" r="3"></circle>
                            <circle id="椭圆形备份-4" cx="112" cy="3" r="3"></circle>
                            <circle id="椭圆形备份-8" cx="258" cy="3" r="3"></circle>
                            <circle id="椭圆形备份-12" cx="404" cy="3" r="3"></circle>
                            <circle id="椭圆形备份-16" cx="549" cy="3" r="3"></circle>
                        </g>
                        <g id="编组-5备份-6" transform="translate(0.000000, 216.000000)">
                            <circle id="椭圆形" cx="3" cy="3" r="3"></circle>
                            <circle id="椭圆形备份-5" cx="149" cy="3" r="3"></circle>
                            <circle id="椭圆形备份-9" cx="294" cy="3" r="3"></circle>
                            <circle id="椭圆形备份-13" cx="440" cy="3" r="3"></circle>
                            <circle id="椭圆形备份-17" cx="586" cy="3" r="3"></circle>
                            <circle id="椭圆形备份-2" cx="39" cy="3" r="3"></circle>
                            <circle id="椭圆形备份-6" cx="185" cy="3" r="3"></circle>
                            <circle id="椭圆形备份-10" cx="331" cy="3" r="3"></circle>
                            <circle id="椭圆形备份-14" cx="476" cy="3" r="3"></circle>
                            <circle id="椭圆形备份-18" cx="622" cy="3" r="3"></circle>
                            <circle id="椭圆形备份-3" cx="76" cy="3" r="3"></circle>
                            <circle id="椭圆形备份-7" cx="222" cy="3" r="3"></circle>
                            <circle id="椭圆形备份-11" cx="367" cy="3" r="3"></circle>
                            <circle id="椭圆形备份-15" cx="513" cy="3" r="3"></circle>
                            <circle id="椭圆形备份-19" cx="659" cy="3" r="3"></circle>
                            <circle id="椭圆形备份-4" cx="112" cy="3" r="3"></circle>
                            <circle id="椭圆形备份-8" cx="258" cy="3" r="3"></circle>
                            <circle id="椭圆形备份-12" cx="404" cy="3" r="3"></circle>
                            <circle id="椭圆形备份-16" cx="549" cy="3" r="3"></circle>
                        </g>
                        <g id="编组-5备份-3" transform="translate(0.000000, 108.000000)">
                            <circle id="椭圆形" cx="3" cy="3" r="3"></circle>
                            <circle id="椭圆形备份-5" cx="149" cy="3" r="3"></circle>
                            <circle id="椭圆形备份-9" cx="294" cy="3" r="3"></circle>
                            <circle id="椭圆形备份-13" cx="440" cy="3" r="3"></circle>
                            <circle id="椭圆形备份-17" cx="586" cy="3" r="3"></circle>
                            <circle id="椭圆形备份-2" cx="39" cy="3" r="3"></circle>
                            <circle id="椭圆形备份-6" cx="185" cy="3" r="3"></circle>
                            <circle id="椭圆形备份-10" cx="331" cy="3" r="3"></circle>
                            <circle id="椭圆形备份-14" cx="476" cy="3" r="3"></circle>
                            <circle id="椭圆形备份-18" cx="622" cy="3" r="3"></circle>
                            <circle id="椭圆形备份-3" cx="76" cy="3" r="3"></circle>
                            <circle id="椭圆形备份-7" cx="222" cy="3" r="3"></circle>
                            <circle id="椭圆形备份-11" cx="367" cy="3" r="3"></circle>
                            <circle id="椭圆形备份-15" cx="513" cy="3" r="3"></circle>
                            <circle id="椭圆形备份-19" cx="659" cy="3" r="3"></circle>
                            <circle id="椭圆形备份-4" cx="112" cy="3" r="3"></circle>
                            <circle id="椭圆形备份-8" cx="258" cy="3" r="3"></circle>
                            <circle id="椭圆形备份-12" cx="404" cy="3" r="3"></circle>
                            <circle id="椭圆形备份-16" cx="549" cy="3" r="3"></circle>
                        </g>
                        <g id="编组-5备份-7" transform="translate(0.000000, 252.000000)">
                            <circle id="椭圆形" cx="3" cy="3" r="3"></circle>
                            <circle id="椭圆形备份-5" cx="149" cy="3" r="3"></circle>
                            <circle id="椭圆形备份-9" cx="294" cy="3" r="3"></circle>
                            <circle id="椭圆形备份-13" cx="440" cy="3" r="3"></circle>
                            <circle id="椭圆形备份-17" cx="586" cy="3" r="3"></circle>
                            <circle id="椭圆形备份-2" cx="39" cy="3" r="3"></circle>
                            <circle id="椭圆形备份-6" cx="185" cy="3" r="3"></circle>
                            <circle id="椭圆形备份-10" cx="331" cy="3" r="3"></circle>
                            <circle id="椭圆形备份-14" cx="476" cy="3" r="3"></circle>
                            <circle id="椭圆形备份-18" cx="622" cy="3" r="3"></circle>
                            <circle id="椭圆形备份-3" cx="76" cy="3" r="3"></circle>
                            <circle id="椭圆形备份-7" cx="222" cy="3" r="3"></circle>
                            <circle id="椭圆形备份-11" cx="367" cy="3" r="3"></circle>
                            <circle id="椭圆形备份-15" cx="513" cy="3" r="3"></circle>
                            <circle id="椭圆形备份-19" cx="659" cy="3" r="3"></circle>
                            <circle id="椭圆形备份-4" cx="112" cy="3" r="3"></circle>
                            <circle id="椭圆形备份-8" cx="258" cy="3" r="3"></circle>
                            <circle id="椭圆形备份-12" cx="404" cy="3" r="3"></circle>
                            <circle id="椭圆形备份-16" cx="549" cy="3" r="3"></circle>
                        </g>
                        <g id="编组-5备份-8" transform="translate(0.000000, 288.000000)">
                            <circle id="椭圆形" cx="3" cy="3" r="3"></circle>
                            <circle id="椭圆形备份-5" cx="149" cy="3" r="3"></circle>
                            <circle id="椭圆形备份-9" cx="294" cy="3" r="3"></circle>
                            <circle id="椭圆形备份-13" cx="440" cy="3" r="3"></circle>
                            <circle id="椭圆形备份-17" cx="586" cy="3" r="3"></circle>
                            <circle id="椭圆形备份-2" cx="39" cy="3" r="3"></circle>
                            <circle id="椭圆形备份-6" cx="185" cy="3" r="3"></circle>
                            <circle id="椭圆形备份-10" cx="331" cy="3" r="3"></circle>
                            <circle id="椭圆形备份-14" cx="476" cy="3" r="3"></circle>
                            <circle id="椭圆形备份-18" cx="622" cy="3" r="3"></circle>
                            <circle id="椭圆形备份-3" cx="76" cy="3" r="3"></circle>
                            <circle id="椭圆形备份-7" cx="222" cy="3" r="3"></circle>
                            <circle id="椭圆形备份-11" cx="367" cy="3" r="3"></circle>
                            <circle id="椭圆形备份-15" cx="513" cy="3" r="3"></circle>
                            <circle id="椭圆形备份-19" cx="659" cy="3" r="3"></circle>
                            <circle id="椭圆形备份-4" cx="112" cy="3" r="3"></circle>
                            <circle id="椭圆形备份-8" cx="258" cy="3" r="3"></circle>
                            <circle id="椭圆形备份-12" cx="404" cy="3" r="3"></circle>
                            <circle id="椭圆形备份-16" cx="549" cy="3" r="3"></circle>
                        </g>
                    </g>
                </g>
                <g id="编组-12" transform="translate(231.000000, 66.000000)">
                    <rect id="矩形" stroke="#FFFFFF" stroke-width="5" x="0" y="0" width="202" height="144"></rect>
                    <g id="闪电_lightning" transform="translate(61.000000, 38.000000)">
                        <rect id="矩形" fill-opacity="0.01" fill="#FFFFFF" fill-rule="nonzero" x="0" y="1" width="80" height="80"></rect>
                        <polygon id="路径" fill="#FFFB04" points="29.4179104 0 65.6865672 0 43.5223881 28.35 73.7462687 28.35 25.3880597 81 35.4626866 42.525 7.25373134 42.525"></polygon>
                    </g>
                    <rect id="矩形" fill="#FFFFFF" x="42" y="164" width="112" height="5"></rect>
                </g>
            </g>
        </g>
    </g>
</svg>