<?xml version="1.0" encoding="UTF-8"?>
<svg width="662px" height="294px" viewBox="0 0 662 294" version="1.1" xmlns="http://www.w3.org/2000/svg" xmlns:xlink="http://www.w3.org/1999/xlink">
    <title>编组 38</title>
    <g id="页面-1" stroke="none" stroke-width="1" fill="none" fill-rule="evenodd">
        <g id="node" transform="translate(-998.000000, -3416.000000)">
            <g id="编组-38" transform="translate(998.000000, 3416.000000)">
                <g id="编组-34" fill="#FFFFFF" opacity="0.200000003">
                    <g id="编组-6备份">
                        <g id="编组-5">
                            <circle id="椭圆形" cx="3" cy="3" r="3"></circle>
                            <circle id="椭圆形备份-5" cx="149" cy="3" r="3"></circle>
                            <circle id="椭圆形备份-9" cx="294" cy="3" r="3"></circle>
                            <circle id="椭圆形备份-13" cx="440" cy="3" r="3"></circle>
                            <circle id="椭圆形备份-17" cx="586" cy="3" r="3"></circle>
                            <circle id="椭圆形备份-2" cx="39" cy="3" r="3"></circle>
                            <circle id="椭圆形备份-6" cx="185" cy="3" r="3"></circle>
                            <circle id="椭圆形备份-10" cx="331" cy="3" r="3"></circle>
                            <circle id="椭圆形备份-14" cx="476" cy="3" r="3"></circle>
                            <circle id="椭圆形备份-18" cx="622" cy="3" r="3"></circle>
                            <circle id="椭圆形备份-3" cx="76" cy="3" r="3"></circle>
                            <circle id="椭圆形备份-7" cx="222" cy="3" r="3"></circle>
                            <circle id="椭圆形备份-11" cx="367" cy="3" r="3"></circle>
                            <circle id="椭圆形备份-15" cx="513" cy="3" r="3"></circle>
                            <circle id="椭圆形备份-19" cx="659" cy="3" r="3"></circle>
                            <circle id="椭圆形备份-4" cx="112" cy="3" r="3"></circle>
                            <circle id="椭圆形备份-8" cx="258" cy="3" r="3"></circle>
                            <circle id="椭圆形备份-12" cx="404" cy="3" r="3"></circle>
                            <circle id="椭圆形备份-16" cx="549" cy="3" r="3"></circle>
                        </g>
                        <g id="编组-5备份-4" transform="translate(0.000000, 144.000000)">
                            <circle id="椭圆形" cx="3" cy="3" r="3"></circle>
                            <circle id="椭圆形备份-5" cx="149" cy="3" r="3"></circle>
                            <circle id="椭圆形备份-9" cx="294" cy="3" r="3"></circle>
                            <circle id="椭圆形备份-13" cx="440" cy="3" r="3"></circle>
                            <circle id="椭圆形备份-17" cx="586" cy="3" r="3"></circle>
                            <circle id="椭圆形备份-2" cx="39" cy="3" r="3"></circle>
                            <circle id="椭圆形备份-6" cx="185" cy="3" r="3"></circle>
                            <circle id="椭圆形备份-10" cx="331" cy="3" r="3"></circle>
                            <circle id="椭圆形备份-14" cx="476" cy="3" r="3"></circle>
                            <circle id="椭圆形备份-18" cx="622" cy="3" r="3"></circle>
                            <circle id="椭圆形备份-3" cx="76" cy="3" r="3"></circle>
                            <circle id="椭圆形备份-7" cx="222" cy="3" r="3"></circle>
                            <circle id="椭圆形备份-11" cx="367" cy="3" r="3"></circle>
                            <circle id="椭圆形备份-15" cx="513" cy="3" r="3"></circle>
                            <circle id="椭圆形备份-19" cx="659" cy="3" r="3"></circle>
                            <circle id="椭圆形备份-4" cx="112" cy="3" r="3"></circle>
                            <circle id="椭圆形备份-8" cx="258" cy="3" r="3"></circle>
                            <circle id="椭圆形备份-12" cx="404" cy="3" r="3"></circle>
                            <circle id="椭圆形备份-16" cx="549" cy="3" r="3"></circle>
                        </g>
                        <g id="编组-5备份" transform="translate(0.000000, 36.000000)">
                            <circle id="椭圆形" cx="3" cy="3" r="3"></circle>
                            <circle id="椭圆形备份-5" cx="149" cy="3" r="3"></circle>
                            <circle id="椭圆形备份-9" cx="294" cy="3" r="3"></circle>
                            <circle id="椭圆形备份-13" cx="440" cy="3" r="3"></circle>
                            <circle id="椭圆形备份-17" cx="586" cy="3" r="3"></circle>
                            <circle id="椭圆形备份-2" cx="39" cy="3" r="3"></circle>
                            <circle id="椭圆形备份-6" cx="185" cy="3" r="3"></circle>
                            <circle id="椭圆形备份-10" cx="331" cy="3" r="3"></circle>
                            <circle id="椭圆形备份-14" cx="476" cy="3" r="3"></circle>
                            <circle id="椭圆形备份-18" cx="622" cy="3" r="3"></circle>
                            <circle id="椭圆形备份-3" cx="76" cy="3" r="3"></circle>
                            <circle id="椭圆形备份-7" cx="222" cy="3" r="3"></circle>
                            <circle id="椭圆形备份-11" cx="367" cy="3" r="3"></circle>
                            <circle id="椭圆形备份-15" cx="513" cy="3" r="3"></circle>
                            <circle id="椭圆形备份-19" cx="659" cy="3" r="3"></circle>
                            <circle id="椭圆形备份-4" cx="112" cy="3" r="3"></circle>
                            <circle id="椭圆形备份-8" cx="258" cy="3" r="3"></circle>
                            <circle id="椭圆形备份-12" cx="404" cy="3" r="3"></circle>
                            <circle id="椭圆形备份-16" cx="549" cy="3" r="3"></circle>
                        </g>
                        <g id="编组-5备份-5" transform="translate(0.000000, 180.000000)">
                            <circle id="椭圆形" cx="3" cy="3" r="3"></circle>
                            <circle id="椭圆形备份-5" cx="149" cy="3" r="3"></circle>
                            <circle id="椭圆形备份-9" cx="294" cy="3" r="3"></circle>
                            <circle id="椭圆形备份-13" cx="440" cy="3" r="3"></circle>
                            <circle id="椭圆形备份-17" cx="586" cy="3" r="3"></circle>
                            <circle id="椭圆形备份-2" cx="39" cy="3" r="3"></circle>
                            <circle id="椭圆形备份-6" cx="185" cy="3" r="3"></circle>
                            <circle id="椭圆形备份-10" cx="331" cy="3" r="3"></circle>
                            <circle id="椭圆形备份-14" cx="476" cy="3" r="3"></circle>
                            <circle id="椭圆形备份-18" cx="622" cy="3" r="3"></circle>
                            <circle id="椭圆形备份-3" cx="76" cy="3" r="3"></circle>
                            <circle id="椭圆形备份-7" cx="222" cy="3" r="3"></circle>
                            <circle id="椭圆形备份-11" cx="367" cy="3" r="3"></circle>
                            <circle id="椭圆形备份-15" cx="513" cy="3" r="3"></circle>
                            <circle id="椭圆形备份-19" cx="659" cy="3" r="3"></circle>
                            <circle id="椭圆形备份-4" cx="112" cy="3" r="3"></circle>
                            <circle id="椭圆形备份-8" cx="258" cy="3" r="3"></circle>
                            <circle id="椭圆形备份-12" cx="404" cy="3" r="3"></circle>
                            <circle id="椭圆形备份-16" cx="549" cy="3" r="3"></circle>
                        </g>
                        <g id="编组-5备份-2" transform="translate(0.000000, 72.000000)">
                            <circle id="椭圆形" cx="3" cy="3" r="3"></circle>
                            <circle id="椭圆形备份-5" cx="149" cy="3" r="3"></circle>
                            <circle id="椭圆形备份-9" cx="294" cy="3" r="3"></circle>
                            <circle id="椭圆形备份-13" cx="440" cy="3" r="3"></circle>
                            <circle id="椭圆形备份-17" cx="586" cy="3" r="3"></circle>
                            <circle id="椭圆形备份-2" cx="39" cy="3" r="3"></circle>
                            <circle id="椭圆形备份-6" cx="185" cy="3" r="3"></circle>
                            <circle id="椭圆形备份-10" cx="331" cy="3" r="3"></circle>
                            <circle id="椭圆形备份-14" cx="476" cy="3" r="3"></circle>
                            <circle id="椭圆形备份-18" cx="622" cy="3" r="3"></circle>
                            <circle id="椭圆形备份-3" cx="76" cy="3" r="3"></circle>
                            <circle id="椭圆形备份-7" cx="222" cy="3" r="3"></circle>
                            <circle id="椭圆形备份-11" cx="367" cy="3" r="3"></circle>
                            <circle id="椭圆形备份-15" cx="513" cy="3" r="3"></circle>
                            <circle id="椭圆形备份-19" cx="659" cy="3" r="3"></circle>
                            <circle id="椭圆形备份-4" cx="112" cy="3" r="3"></circle>
                            <circle id="椭圆形备份-8" cx="258" cy="3" r="3"></circle>
                            <circle id="椭圆形备份-12" cx="404" cy="3" r="3"></circle>
                            <circle id="椭圆形备份-16" cx="549" cy="3" r="3"></circle>
                        </g>
                        <g id="编组-5备份-6" transform="translate(0.000000, 216.000000)">
                            <circle id="椭圆形" cx="3" cy="3" r="3"></circle>
                            <circle id="椭圆形备份-5" cx="149" cy="3" r="3"></circle>
                            <circle id="椭圆形备份-9" cx="294" cy="3" r="3"></circle>
                            <circle id="椭圆形备份-13" cx="440" cy="3" r="3"></circle>
                            <circle id="椭圆形备份-17" cx="586" cy="3" r="3"></circle>
                            <circle id="椭圆形备份-2" cx="39" cy="3" r="3"></circle>
                            <circle id="椭圆形备份-6" cx="185" cy="3" r="3"></circle>
                            <circle id="椭圆形备份-10" cx="331" cy="3" r="3"></circle>
                            <circle id="椭圆形备份-14" cx="476" cy="3" r="3"></circle>
                            <circle id="椭圆形备份-18" cx="622" cy="3" r="3"></circle>
                            <circle id="椭圆形备份-3" cx="76" cy="3" r="3"></circle>
                            <circle id="椭圆形备份-7" cx="222" cy="3" r="3"></circle>
                            <circle id="椭圆形备份-11" cx="367" cy="3" r="3"></circle>
                            <circle id="椭圆形备份-15" cx="513" cy="3" r="3"></circle>
                            <circle id="椭圆形备份-19" cx="659" cy="3" r="3"></circle>
                            <circle id="椭圆形备份-4" cx="112" cy="3" r="3"></circle>
                            <circle id="椭圆形备份-8" cx="258" cy="3" r="3"></circle>
                            <circle id="椭圆形备份-12" cx="404" cy="3" r="3"></circle>
                            <circle id="椭圆形备份-16" cx="549" cy="3" r="3"></circle>
                        </g>
                        <g id="编组-5备份-3" transform="translate(0.000000, 108.000000)">
                            <circle id="椭圆形" cx="3" cy="3" r="3"></circle>
                            <circle id="椭圆形备份-5" cx="149" cy="3" r="3"></circle>
                            <circle id="椭圆形备份-9" cx="294" cy="3" r="3"></circle>
                            <circle id="椭圆形备份-13" cx="440" cy="3" r="3"></circle>
                            <circle id="椭圆形备份-17" cx="586" cy="3" r="3"></circle>
                            <circle id="椭圆形备份-2" cx="39" cy="3" r="3"></circle>
                            <circle id="椭圆形备份-6" cx="185" cy="3" r="3"></circle>
                            <circle id="椭圆形备份-10" cx="331" cy="3" r="3"></circle>
                            <circle id="椭圆形备份-14" cx="476" cy="3" r="3"></circle>
                            <circle id="椭圆形备份-18" cx="622" cy="3" r="3"></circle>
                            <circle id="椭圆形备份-3" cx="76" cy="3" r="3"></circle>
                            <circle id="椭圆形备份-7" cx="222" cy="3" r="3"></circle>
                            <circle id="椭圆形备份-11" cx="367" cy="3" r="3"></circle>
                            <circle id="椭圆形备份-15" cx="513" cy="3" r="3"></circle>
                            <circle id="椭圆形备份-19" cx="659" cy="3" r="3"></circle>
                            <circle id="椭圆形备份-4" cx="112" cy="3" r="3"></circle>
                            <circle id="椭圆形备份-8" cx="258" cy="3" r="3"></circle>
                            <circle id="椭圆形备份-12" cx="404" cy="3" r="3"></circle>
                            <circle id="椭圆形备份-16" cx="549" cy="3" r="3"></circle>
                        </g>
                        <g id="编组-5备份-7" transform="translate(0.000000, 252.000000)">
                            <circle id="椭圆形" cx="3" cy="3" r="3"></circle>
                            <circle id="椭圆形备份-5" cx="149" cy="3" r="3"></circle>
                            <circle id="椭圆形备份-9" cx="294" cy="3" r="3"></circle>
                            <circle id="椭圆形备份-13" cx="440" cy="3" r="3"></circle>
                            <circle id="椭圆形备份-17" cx="586" cy="3" r="3"></circle>
                            <circle id="椭圆形备份-2" cx="39" cy="3" r="3"></circle>
                            <circle id="椭圆形备份-6" cx="185" cy="3" r="3"></circle>
                            <circle id="椭圆形备份-10" cx="331" cy="3" r="3"></circle>
                            <circle id="椭圆形备份-14" cx="476" cy="3" r="3"></circle>
                            <circle id="椭圆形备份-18" cx="622" cy="3" r="3"></circle>
                            <circle id="椭圆形备份-3" cx="76" cy="3" r="3"></circle>
                            <circle id="椭圆形备份-7" cx="222" cy="3" r="3"></circle>
                            <circle id="椭圆形备份-11" cx="367" cy="3" r="3"></circle>
                            <circle id="椭圆形备份-15" cx="513" cy="3" r="3"></circle>
                            <circle id="椭圆形备份-19" cx="659" cy="3" r="3"></circle>
                            <circle id="椭圆形备份-4" cx="112" cy="3" r="3"></circle>
                            <circle id="椭圆形备份-8" cx="258" cy="3" r="3"></circle>
                            <circle id="椭圆形备份-12" cx="404" cy="3" r="3"></circle>
                            <circle id="椭圆形备份-16" cx="549" cy="3" r="3"></circle>
                        </g>
                        <g id="编组-5备份-8" transform="translate(0.000000, 288.000000)">
                            <circle id="椭圆形" cx="3" cy="3" r="3"></circle>
                            <circle id="椭圆形备份-5" cx="149" cy="3" r="3"></circle>
                            <circle id="椭圆形备份-9" cx="294" cy="3" r="3"></circle>
                            <circle id="椭圆形备份-13" cx="440" cy="3" r="3"></circle>
                            <circle id="椭圆形备份-17" cx="586" cy="3" r="3"></circle>
                            <circle id="椭圆形备份-2" cx="39" cy="3" r="3"></circle>
                            <circle id="椭圆形备份-6" cx="185" cy="3" r="3"></circle>
                            <circle id="椭圆形备份-10" cx="331" cy="3" r="3"></circle>
                            <circle id="椭圆形备份-14" cx="476" cy="3" r="3"></circle>
                            <circle id="椭圆形备份-18" cx="622" cy="3" r="3"></circle>
                            <circle id="椭圆形备份-3" cx="76" cy="3" r="3"></circle>
                            <circle id="椭圆形备份-7" cx="222" cy="3" r="3"></circle>
                            <circle id="椭圆形备份-11" cx="367" cy="3" r="3"></circle>
                            <circle id="椭圆形备份-15" cx="513" cy="3" r="3"></circle>
                            <circle id="椭圆形备份-19" cx="659" cy="3" r="3"></circle>
                            <circle id="椭圆形备份-4" cx="112" cy="3" r="3"></circle>
                            <circle id="椭圆形备份-8" cx="258" cy="3" r="3"></circle>
                            <circle id="椭圆形备份-12" cx="404" cy="3" r="3"></circle>
                            <circle id="椭圆形备份-16" cx="549" cy="3" r="3"></circle>
                        </g>
                    </g>
                </g>
                <g id="编组-9" transform="translate(220.000000, 38.000000)">
                    <g id="循环_cycle">
                        <rect id="矩形" fill-opacity="0.01" fill="#FFFFFF" fill-rule="nonzero" x="0" y="0" width="224" height="222"></rect>
                        <polyline id="路径" stroke="#FFFFFF" stroke-width="5" stroke-linecap="round" stroke-linejoin="round" points="60.6666667 161.875 32.6666667 161.875 32.6666667 189.625"></polyline>
                        <polyline id="路径" stroke="#FFFFFF" stroke-width="5" stroke-linecap="round" stroke-linejoin="round" points="191.333333 189.625 163.333333 189.625 163.333333 161.875"></polyline>
                        <polyline id="路径" stroke="#FFFFFF" stroke-width="5" stroke-linecap="round" stroke-linejoin="round" points="163.333333 60.125 191.333333 60.125 191.333333 32.375"></polyline>
                        <polyline id="路径" stroke="#FFFFFF" stroke-width="5" stroke-linecap="round" stroke-linejoin="round" points="32.6666667 32.375 60.6666667 32.375 60.6666667 60.125"></polyline>
                        <path d="M60.6666667,33.7349813 C35.3629733,50.2806875 18.6666667,78.7077875 18.6666667,111 C18.6666667,115.71565 19.0227333,120.348975 19.7096667,124.875" id="路径" stroke="#FFFFFF" stroke-width="5" stroke-linecap="round" stroke-linejoin="round"></path>
                        <path d="M125.999533,202.466313 C121.432733,203.147113 116.757667,203.5 111.999533,203.5 C79.4164,203.5 50.7332,186.952675 34.0384333,161.875" id="路径" stroke="#FFFFFF" stroke-width="5" stroke-linecap="round" stroke-linejoin="round"></path>
                        <path d="M204.290333,97.125 C204.977267,101.651025 205.333333,106.28435 205.333333,111 C205.333333,143.292213 188.636933,171.719313 163.333333,188.26525" id="路径" stroke="#FFFFFF" stroke-width="5" stroke-linecap="round" stroke-linejoin="round"></path>
                        <path d="M98,19.5336875 C102.5668,18.8528875 107.241867,18.5 112,18.5 C144.583133,18.5 173.266333,35.0472325 189.961333,60.125" id="路径" stroke="#FFFFFF" stroke-width="5" stroke-linecap="round" stroke-linejoin="round"></path>
                    </g>
                    <ellipse id="椭圆形" stroke="#FFFB04" stroke-width="11" cx="111" cy="110.5" rx="37" ry="36.5"></ellipse>
                </g>
            </g>
        </g>
    </g>
</svg>