<?xml version="1.0" encoding="UTF-8"?>
<svg width="25px" height="25px" viewBox="0 0 25 25" version="1.1" xmlns="http://www.w3.org/2000/svg" xmlns:xlink="http://www.w3.org/1999/xlink">
    <title>编组 24</title>
    <g id="页面-1" stroke="none" stroke-width="1" fill="none" fill-rule="evenodd">
        <g id="首页-整个背景" transform="translate(-1563.000000, -21.000000)">
            <g id="编组-27" transform="translate(1530.000000, 21.000000)">
                <g id="编组-24" transform="translate(33.000000, 0.000000)">
                    <rect id="矩形备份-11" fill="#000000" x="0" y="0" width="25" height="25" rx="1.8"></rect>
                    <path d="M21.9856566,7.42508486 C21.3016108,7.72696639 20.5760396,7.92515961 19.8330037,8.01307721 C20.6157661,7.54692366 21.20147,6.81327231 21.48068,5.94900158 C20.7449148,6.38380767 19.9398156,6.690031 19.1001618,6.85438507 C18.5348459,6.25746294 17.7876874,5.86247901 16.9741932,5.73047951 C16.1606989,5.59847255 15.3262171,5.73679824 14.5995965,6.12407586 C13.8730508,6.51135347 13.2948425,7.12602325 12.9543188,7.87308791 C12.61387,8.62015258 12.5301444,9.45802938 12.7160346,10.257218 C11.2259152,10.1829449 9.76817665,9.79759202 8.43748804,9.12617305 C7.10672447,8.45476154 5.93276823,7.51230121 4.99184928,6.35998002 C4.5124326,7.18121328 4.36544446,8.15337984 4.5807922,9.0786595 C4.79613994,10.0039317 5.35755816,10.8127737 6.15088933,11.3406523 C5.55604086,11.3218528 4.97423469,11.1617585 4.45419202,10.8737229 L4.45419202,10.9215423 C4.45456679,11.7824411 4.75393988,12.6168564 5.30156625,13.2833442 C5.84919262,13.9497574 6.61141718,14.4074363 7.45924115,14.5786462 C6.90771708,14.7284456 6.32898408,14.7503784 5.76764082,14.6427287 C6.00682447,15.383967 6.47289904,16.0322521 7.10065306,16.4968689 C7.72833212,16.9614857 8.4862842,17.2190839 9.26837202,17.2337803 C8.49093146,17.8417808 7.6006076,18.2911043 6.64837034,18.556088 C5.69620803,18.8210717 4.70079628,18.8964936 3.71925134,18.7780268 C5.43288864,19.8743672 7.42745993,20.4563318 9.46460605,20.4545455 C16.3578324,20.4545455 20.1274297,14.7699239 20.1274297,9.84012967 C20.1274297,9.6773646 20.1233072,9.51662868 20.1171608,9.35691481 C20.8508272,8.8291779 21.4839031,8.17532007 21.986631,7.42609943 L21.9856566,7.42508486 Z" id="路径" fill="#FFFFFF" fill-rule="nonzero"></path>
                </g>
            </g>
        </g>
    </g>
</svg>