<?xml version="1.0" encoding="UTF-8"?>
<svg width="25px" height="25px" viewBox="0 0 25 25" version="1.1" xmlns="http://www.w3.org/2000/svg" xmlns:xlink="http://www.w3.org/1999/xlink">
    <title>编组 22</title>
    <g id="页面-1" stroke="none" stroke-width="1" fill="none" fill-rule="evenodd">
        <g id="首页-整个背景" transform="translate(-1596.000000, -21.000000)">
            <g id="编组-27" transform="translate(1530.000000, 21.000000)">
                <g id="编组-22" transform="translate(66.000000, 0.000000)">
                    <rect id="矩形备份-12" fill="#000000" x="0" y="0" width="25" height="25" rx="1.8"></rect>
                    <path d="M18.5735543,19.7303485 L21.3306457,6.24168386 C21.4428155,5.67126906 21.3770854,5.2626729 21.1334554,5.01589539 C20.8898254,4.76911788 20.5683196,4.7236087 20.1689378,4.87936045 L3.96868605,11.3612882 C3.60624178,11.5028739 3.35875371,11.6656716 3.22822233,11.8467144 C3.09669071,12.0287957 3.08111553,12.2007159 3.18142536,12.3625494 C3.2808064,12.525347 3.4814975,12.6518026 3.78064085,12.7428061 L7.9251372,14.0859053 L17.5433066,7.7992013 C17.806227,7.61714976 18.0055606,7.57871617 18.1434509,7.68188315 C18.2306147,7.74761781 18.2056087,7.8437018 18.0684329,7.97517852 L10.2867049,15.2722145 L9.9866328,19.710175 C10.274059,19.710175 10.5556267,19.5665125 10.8303356,19.2813385 L12.8558226,17.2576042 L17.0546177,20.468686 C17.8555245,20.9359412 18.3613604,20.6891859 18.5749832,19.7293844" id="路径" fill="#FFFFFF" fill-rule="nonzero"></path>
                </g>
            </g>
        </g>
    </g>
</svg>