<?xml version="1.0" encoding="UTF-8"?>
<svg width="662px" height="294px" viewBox="0 0 662 294" version="1.1" xmlns="http://www.w3.org/2000/svg" xmlns:xlink="http://www.w3.org/1999/xlink">
    <title>编组 41</title>
    <g id="页面-1" stroke="none" stroke-width="1" fill="none" fill-rule="evenodd">
        <g id="node" transform="translate(-260.000000, -3933.000000)">
            <g id="编组-41" transform="translate(260.000000, 3933.000000)">
                <g id="编组-36" fill="#FFFFFF" opacity="0.200000003">
                    <g id="编组-6备份-2">
                        <g id="编组-5">
                            <circle id="椭圆形" cx="3" cy="3" r="3"></circle>
                            <circle id="椭圆形备份-5" cx="149" cy="3" r="3"></circle>
                            <circle id="椭圆形备份-9" cx="294" cy="3" r="3"></circle>
                            <circle id="椭圆形备份-13" cx="440" cy="3" r="3"></circle>
                            <circle id="椭圆形备份-17" cx="586" cy="3" r="3"></circle>
                            <circle id="椭圆形备份-2" cx="39" cy="3" r="3"></circle>
                            <circle id="椭圆形备份-6" cx="185" cy="3" r="3"></circle>
                            <circle id="椭圆形备份-10" cx="331" cy="3" r="3"></circle>
                            <circle id="椭圆形备份-14" cx="476" cy="3" r="3"></circle>
                            <circle id="椭圆形备份-18" cx="622" cy="3" r="3"></circle>
                            <circle id="椭圆形备份-3" cx="76" cy="3" r="3"></circle>
                            <circle id="椭圆形备份-7" cx="222" cy="3" r="3"></circle>
                            <circle id="椭圆形备份-11" cx="367" cy="3" r="3"></circle>
                            <circle id="椭圆形备份-15" cx="513" cy="3" r="3"></circle>
                            <circle id="椭圆形备份-19" cx="659" cy="3" r="3"></circle>
                            <circle id="椭圆形备份-4" cx="112" cy="3" r="3"></circle>
                            <circle id="椭圆形备份-8" cx="258" cy="3" r="3"></circle>
                            <circle id="椭圆形备份-12" cx="404" cy="3" r="3"></circle>
                            <circle id="椭圆形备份-16" cx="549" cy="3" r="3"></circle>
                        </g>
                        <g id="编组-5备份-4" transform="translate(0.000000, 144.000000)">
                            <circle id="椭圆形" cx="3" cy="3" r="3"></circle>
                            <circle id="椭圆形备份-5" cx="149" cy="3" r="3"></circle>
                            <circle id="椭圆形备份-9" cx="294" cy="3" r="3"></circle>
                            <circle id="椭圆形备份-13" cx="440" cy="3" r="3"></circle>
                            <circle id="椭圆形备份-17" cx="586" cy="3" r="3"></circle>
                            <circle id="椭圆形备份-2" cx="39" cy="3" r="3"></circle>
                            <circle id="椭圆形备份-6" cx="185" cy="3" r="3"></circle>
                            <circle id="椭圆形备份-10" cx="331" cy="3" r="3"></circle>
                            <circle id="椭圆形备份-14" cx="476" cy="3" r="3"></circle>
                            <circle id="椭圆形备份-18" cx="622" cy="3" r="3"></circle>
                            <circle id="椭圆形备份-3" cx="76" cy="3" r="3"></circle>
                            <circle id="椭圆形备份-7" cx="222" cy="3" r="3"></circle>
                            <circle id="椭圆形备份-11" cx="367" cy="3" r="3"></circle>
                            <circle id="椭圆形备份-15" cx="513" cy="3" r="3"></circle>
                            <circle id="椭圆形备份-19" cx="659" cy="3" r="3"></circle>
                            <circle id="椭圆形备份-4" cx="112" cy="3" r="3"></circle>
                            <circle id="椭圆形备份-8" cx="258" cy="3" r="3"></circle>
                            <circle id="椭圆形备份-12" cx="404" cy="3" r="3"></circle>
                            <circle id="椭圆形备份-16" cx="549" cy="3" r="3"></circle>
                        </g>
                        <g id="编组-5备份" transform="translate(0.000000, 36.000000)">
                            <circle id="椭圆形" cx="3" cy="3" r="3"></circle>
                            <circle id="椭圆形备份-5" cx="149" cy="3" r="3"></circle>
                            <circle id="椭圆形备份-9" cx="294" cy="3" r="3"></circle>
                            <circle id="椭圆形备份-13" cx="440" cy="3" r="3"></circle>
                            <circle id="椭圆形备份-17" cx="586" cy="3" r="3"></circle>
                            <circle id="椭圆形备份-2" cx="39" cy="3" r="3"></circle>
                            <circle id="椭圆形备份-6" cx="185" cy="3" r="3"></circle>
                            <circle id="椭圆形备份-10" cx="331" cy="3" r="3"></circle>
                            <circle id="椭圆形备份-14" cx="476" cy="3" r="3"></circle>
                            <circle id="椭圆形备份-18" cx="622" cy="3" r="3"></circle>
                            <circle id="椭圆形备份-3" cx="76" cy="3" r="3"></circle>
                            <circle id="椭圆形备份-7" cx="222" cy="3" r="3"></circle>
                            <circle id="椭圆形备份-11" cx="367" cy="3" r="3"></circle>
                            <circle id="椭圆形备份-15" cx="513" cy="3" r="3"></circle>
                            <circle id="椭圆形备份-19" cx="659" cy="3" r="3"></circle>
                            <circle id="椭圆形备份-4" cx="112" cy="3" r="3"></circle>
                            <circle id="椭圆形备份-8" cx="258" cy="3" r="3"></circle>
                            <circle id="椭圆形备份-12" cx="404" cy="3" r="3"></circle>
                            <circle id="椭圆形备份-16" cx="549" cy="3" r="3"></circle>
                        </g>
                        <g id="编组-5备份-5" transform="translate(0.000000, 180.000000)">
                            <circle id="椭圆形" cx="3" cy="3" r="3"></circle>
                            <circle id="椭圆形备份-5" cx="149" cy="3" r="3"></circle>
                            <circle id="椭圆形备份-9" cx="294" cy="3" r="3"></circle>
                            <circle id="椭圆形备份-13" cx="440" cy="3" r="3"></circle>
                            <circle id="椭圆形备份-17" cx="586" cy="3" r="3"></circle>
                            <circle id="椭圆形备份-2" cx="39" cy="3" r="3"></circle>
                            <circle id="椭圆形备份-6" cx="185" cy="3" r="3"></circle>
                            <circle id="椭圆形备份-10" cx="331" cy="3" r="3"></circle>
                            <circle id="椭圆形备份-14" cx="476" cy="3" r="3"></circle>
                            <circle id="椭圆形备份-18" cx="622" cy="3" r="3"></circle>
                            <circle id="椭圆形备份-3" cx="76" cy="3" r="3"></circle>
                            <circle id="椭圆形备份-7" cx="222" cy="3" r="3"></circle>
                            <circle id="椭圆形备份-11" cx="367" cy="3" r="3"></circle>
                            <circle id="椭圆形备份-15" cx="513" cy="3" r="3"></circle>
                            <circle id="椭圆形备份-19" cx="659" cy="3" r="3"></circle>
                            <circle id="椭圆形备份-4" cx="112" cy="3" r="3"></circle>
                            <circle id="椭圆形备份-8" cx="258" cy="3" r="3"></circle>
                            <circle id="椭圆形备份-12" cx="404" cy="3" r="3"></circle>
                            <circle id="椭圆形备份-16" cx="549" cy="3" r="3"></circle>
                        </g>
                        <g id="编组-5备份-2" transform="translate(0.000000, 72.000000)">
                            <circle id="椭圆形" cx="3" cy="3" r="3"></circle>
                            <circle id="椭圆形备份-5" cx="149" cy="3" r="3"></circle>
                            <circle id="椭圆形备份-9" cx="294" cy="3" r="3"></circle>
                            <circle id="椭圆形备份-13" cx="440" cy="3" r="3"></circle>
                            <circle id="椭圆形备份-17" cx="586" cy="3" r="3"></circle>
                            <circle id="椭圆形备份-2" cx="39" cy="3" r="3"></circle>
                            <circle id="椭圆形备份-6" cx="185" cy="3" r="3"></circle>
                            <circle id="椭圆形备份-10" cx="331" cy="3" r="3"></circle>
                            <circle id="椭圆形备份-14" cx="476" cy="3" r="3"></circle>
                            <circle id="椭圆形备份-18" cx="622" cy="3" r="3"></circle>
                            <circle id="椭圆形备份-3" cx="76" cy="3" r="3"></circle>
                            <circle id="椭圆形备份-7" cx="222" cy="3" r="3"></circle>
                            <circle id="椭圆形备份-11" cx="367" cy="3" r="3"></circle>
                            <circle id="椭圆形备份-15" cx="513" cy="3" r="3"></circle>
                            <circle id="椭圆形备份-19" cx="659" cy="3" r="3"></circle>
                            <circle id="椭圆形备份-4" cx="112" cy="3" r="3"></circle>
                            <circle id="椭圆形备份-8" cx="258" cy="3" r="3"></circle>
                            <circle id="椭圆形备份-12" cx="404" cy="3" r="3"></circle>
                            <circle id="椭圆形备份-16" cx="549" cy="3" r="3"></circle>
                        </g>
                        <g id="编组-5备份-6" transform="translate(0.000000, 216.000000)">
                            <circle id="椭圆形" cx="3" cy="3" r="3"></circle>
                            <circle id="椭圆形备份-5" cx="149" cy="3" r="3"></circle>
                            <circle id="椭圆形备份-9" cx="294" cy="3" r="3"></circle>
                            <circle id="椭圆形备份-13" cx="440" cy="3" r="3"></circle>
                            <circle id="椭圆形备份-17" cx="586" cy="3" r="3"></circle>
                            <circle id="椭圆形备份-2" cx="39" cy="3" r="3"></circle>
                            <circle id="椭圆形备份-6" cx="185" cy="3" r="3"></circle>
                            <circle id="椭圆形备份-10" cx="331" cy="3" r="3"></circle>
                            <circle id="椭圆形备份-14" cx="476" cy="3" r="3"></circle>
                            <circle id="椭圆形备份-18" cx="622" cy="3" r="3"></circle>
                            <circle id="椭圆形备份-3" cx="76" cy="3" r="3"></circle>
                            <circle id="椭圆形备份-7" cx="222" cy="3" r="3"></circle>
                            <circle id="椭圆形备份-11" cx="367" cy="3" r="3"></circle>
                            <circle id="椭圆形备份-15" cx="513" cy="3" r="3"></circle>
                            <circle id="椭圆形备份-19" cx="659" cy="3" r="3"></circle>
                            <circle id="椭圆形备份-4" cx="112" cy="3" r="3"></circle>
                            <circle id="椭圆形备份-8" cx="258" cy="3" r="3"></circle>
                            <circle id="椭圆形备份-12" cx="404" cy="3" r="3"></circle>
                            <circle id="椭圆形备份-16" cx="549" cy="3" r="3"></circle>
                        </g>
                        <g id="编组-5备份-3" transform="translate(0.000000, 108.000000)">
                            <circle id="椭圆形" cx="3" cy="3" r="3"></circle>
                            <circle id="椭圆形备份-5" cx="149" cy="3" r="3"></circle>
                            <circle id="椭圆形备份-9" cx="294" cy="3" r="3"></circle>
                            <circle id="椭圆形备份-13" cx="440" cy="3" r="3"></circle>
                            <circle id="椭圆形备份-17" cx="586" cy="3" r="3"></circle>
                            <circle id="椭圆形备份-2" cx="39" cy="3" r="3"></circle>
                            <circle id="椭圆形备份-6" cx="185" cy="3" r="3"></circle>
                            <circle id="椭圆形备份-10" cx="331" cy="3" r="3"></circle>
                            <circle id="椭圆形备份-14" cx="476" cy="3" r="3"></circle>
                            <circle id="椭圆形备份-18" cx="622" cy="3" r="3"></circle>
                            <circle id="椭圆形备份-3" cx="76" cy="3" r="3"></circle>
                            <circle id="椭圆形备份-7" cx="222" cy="3" r="3"></circle>
                            <circle id="椭圆形备份-11" cx="367" cy="3" r="3"></circle>
                            <circle id="椭圆形备份-15" cx="513" cy="3" r="3"></circle>
                            <circle id="椭圆形备份-19" cx="659" cy="3" r="3"></circle>
                            <circle id="椭圆形备份-4" cx="112" cy="3" r="3"></circle>
                            <circle id="椭圆形备份-8" cx="258" cy="3" r="3"></circle>
                            <circle id="椭圆形备份-12" cx="404" cy="3" r="3"></circle>
                            <circle id="椭圆形备份-16" cx="549" cy="3" r="3"></circle>
                        </g>
                        <g id="编组-5备份-7" transform="translate(0.000000, 252.000000)">
                            <circle id="椭圆形" cx="3" cy="3" r="3"></circle>
                            <circle id="椭圆形备份-5" cx="149" cy="3" r="3"></circle>
                            <circle id="椭圆形备份-9" cx="294" cy="3" r="3"></circle>
                            <circle id="椭圆形备份-13" cx="440" cy="3" r="3"></circle>
                            <circle id="椭圆形备份-17" cx="586" cy="3" r="3"></circle>
                            <circle id="椭圆形备份-2" cx="39" cy="3" r="3"></circle>
                            <circle id="椭圆形备份-6" cx="185" cy="3" r="3"></circle>
                            <circle id="椭圆形备份-10" cx="331" cy="3" r="3"></circle>
                            <circle id="椭圆形备份-14" cx="476" cy="3" r="3"></circle>
                            <circle id="椭圆形备份-18" cx="622" cy="3" r="3"></circle>
                            <circle id="椭圆形备份-3" cx="76" cy="3" r="3"></circle>
                            <circle id="椭圆形备份-7" cx="222" cy="3" r="3"></circle>
                            <circle id="椭圆形备份-11" cx="367" cy="3" r="3"></circle>
                            <circle id="椭圆形备份-15" cx="513" cy="3" r="3"></circle>
                            <circle id="椭圆形备份-19" cx="659" cy="3" r="3"></circle>
                            <circle id="椭圆形备份-4" cx="112" cy="3" r="3"></circle>
                            <circle id="椭圆形备份-8" cx="258" cy="3" r="3"></circle>
                            <circle id="椭圆形备份-12" cx="404" cy="3" r="3"></circle>
                            <circle id="椭圆形备份-16" cx="549" cy="3" r="3"></circle>
                        </g>
                        <g id="编组-5备份-8" transform="translate(0.000000, 288.000000)">
                            <circle id="椭圆形" cx="3" cy="3" r="3"></circle>
                            <circle id="椭圆形备份-5" cx="149" cy="3" r="3"></circle>
                            <circle id="椭圆形备份-9" cx="294" cy="3" r="3"></circle>
                            <circle id="椭圆形备份-13" cx="440" cy="3" r="3"></circle>
                            <circle id="椭圆形备份-17" cx="586" cy="3" r="3"></circle>
                            <circle id="椭圆形备份-2" cx="39" cy="3" r="3"></circle>
                            <circle id="椭圆形备份-6" cx="185" cy="3" r="3"></circle>
                            <circle id="椭圆形备份-10" cx="331" cy="3" r="3"></circle>
                            <circle id="椭圆形备份-14" cx="476" cy="3" r="3"></circle>
                            <circle id="椭圆形备份-18" cx="622" cy="3" r="3"></circle>
                            <circle id="椭圆形备份-3" cx="76" cy="3" r="3"></circle>
                            <circle id="椭圆形备份-7" cx="222" cy="3" r="3"></circle>
                            <circle id="椭圆形备份-11" cx="367" cy="3" r="3"></circle>
                            <circle id="椭圆形备份-15" cx="513" cy="3" r="3"></circle>
                            <circle id="椭圆形备份-19" cx="659" cy="3" r="3"></circle>
                            <circle id="椭圆形备份-4" cx="112" cy="3" r="3"></circle>
                            <circle id="椭圆形备份-8" cx="258" cy="3" r="3"></circle>
                            <circle id="椭圆形备份-12" cx="404" cy="3" r="3"></circle>
                            <circle id="椭圆形备份-16" cx="549" cy="3" r="3"></circle>
                        </g>
                    </g>
                </g>
                <g id="天平_balance-two" transform="translate(208.000000, 15.000000)">
                    <rect id="矩形" fill-opacity="0.01" fill="#FFFFFF" fill-rule="nonzero" x="0" y="0" width="252" height="252"></rect>
                    <polyline id="路径" stroke="#FFFFFF" stroke-width="5" stroke-linecap="round" stroke-linejoin="round" points="85 115 53 62 21 115"></polyline>
                    <path d="M53,147 C70.6730667,147 85,132.673067 85,115 L21,115 C21,132.673067 35.32688,147 53,147 Z" id="路径" stroke="#FFFB06" stroke-width="5" fill="#FFFB04" stroke-linecap="round" stroke-linejoin="round"></path>
                    <polyline id="路径" stroke="#FFFFFF" stroke-width="5" stroke-linecap="round" stroke-linejoin="round" points="231 115 199 62 167 115"></polyline>
                    <path d="M199,147 C216.673067,147 231,132.673067 231,115 L167,115 C167,132.673067 181.326933,147 199,147 Z" id="路径" stroke="#FFFB06" stroke-width="5" fill="#FFFB04" stroke-linecap="round" stroke-linejoin="round"></path>
                    <line x1="126.5" y1="31" x2="126.5" y2="214" id="路径" stroke="#FFFFFF" stroke-width="5" stroke-linecap="round" stroke-linejoin="round"></line>
                    <polyline id="路径" stroke="#333333" stroke-width="2" stroke-linecap="round" stroke-linejoin="round" points="53 63.5 126.5 63.5 200 63.5"></polyline>
                    <polyline id="路径" stroke="#FFFFFF" stroke-width="5" stroke-linecap="round" stroke-linejoin="round" points="53 63.5 126.5 63.5 200 63.5"></polyline>
                    <polyline id="路径" stroke="#FFFFFF" stroke-width="5" stroke-linecap="round" stroke-linejoin="round" points="200 213.5 126.5 213.5 53 213.5"></polyline>
                </g>
            </g>
        </g>
    </g>
</svg>