<?xml version="1.0" encoding="UTF-8"?>
<svg width="662px" height="294px" viewBox="0 0 662 294" version="1.1" xmlns="http://www.w3.org/2000/svg" xmlns:xlink="http://www.w3.org/1999/xlink">
    <title>编组 14</title>
    <g id="页面-1" stroke="none" stroke-width="1" fill="none" fill-rule="evenodd">
        <g id="node" transform="translate(-260.000000, -3416.000000)">
            <g id="编组-14" transform="translate(260.000000, 3416.000000)">
                <g id="编组-33" fill="#FFFFFF" opacity="0.200000003">
                    <g id="编组-6">
                        <g id="编组-5">
                            <circle id="椭圆形" cx="3" cy="3" r="3"></circle>
                            <circle id="椭圆形备份-5" cx="149" cy="3" r="3"></circle>
                            <circle id="椭圆形备份-9" cx="294" cy="3" r="3"></circle>
                            <circle id="椭圆形备份-13" cx="440" cy="3" r="3"></circle>
                            <circle id="椭圆形备份-17" cx="586" cy="3" r="3"></circle>
                            <circle id="椭圆形备份-2" cx="39" cy="3" r="3"></circle>
                            <circle id="椭圆形备份-6" cx="185" cy="3" r="3"></circle>
                            <circle id="椭圆形备份-10" cx="331" cy="3" r="3"></circle>
                            <circle id="椭圆形备份-14" cx="476" cy="3" r="3"></circle>
                            <circle id="椭圆形备份-18" cx="622" cy="3" r="3"></circle>
                            <circle id="椭圆形备份-3" cx="76" cy="3" r="3"></circle>
                            <circle id="椭圆形备份-7" cx="222" cy="3" r="3"></circle>
                            <circle id="椭圆形备份-11" cx="367" cy="3" r="3"></circle>
                            <circle id="椭圆形备份-15" cx="513" cy="3" r="3"></circle>
                            <circle id="椭圆形备份-19" cx="659" cy="3" r="3"></circle>
                            <circle id="椭圆形备份-4" cx="112" cy="3" r="3"></circle>
                            <circle id="椭圆形备份-8" cx="258" cy="3" r="3"></circle>
                            <circle id="椭圆形备份-12" cx="404" cy="3" r="3"></circle>
                            <circle id="椭圆形备份-16" cx="549" cy="3" r="3"></circle>
                        </g>
                        <g id="编组-5备份-4" transform="translate(0.000000, 144.000000)">
                            <circle id="椭圆形" cx="3" cy="3" r="3"></circle>
                            <circle id="椭圆形备份-5" cx="149" cy="3" r="3"></circle>
                            <circle id="椭圆形备份-9" cx="294" cy="3" r="3"></circle>
                            <circle id="椭圆形备份-13" cx="440" cy="3" r="3"></circle>
                            <circle id="椭圆形备份-17" cx="586" cy="3" r="3"></circle>
                            <circle id="椭圆形备份-2" cx="39" cy="3" r="3"></circle>
                            <circle id="椭圆形备份-6" cx="185" cy="3" r="3"></circle>
                            <circle id="椭圆形备份-10" cx="331" cy="3" r="3"></circle>
                            <circle id="椭圆形备份-14" cx="476" cy="3" r="3"></circle>
                            <circle id="椭圆形备份-18" cx="622" cy="3" r="3"></circle>
                            <circle id="椭圆形备份-3" cx="76" cy="3" r="3"></circle>
                            <circle id="椭圆形备份-7" cx="222" cy="3" r="3"></circle>
                            <circle id="椭圆形备份-11" cx="367" cy="3" r="3"></circle>
                            <circle id="椭圆形备份-15" cx="513" cy="3" r="3"></circle>
                            <circle id="椭圆形备份-19" cx="659" cy="3" r="3"></circle>
                            <circle id="椭圆形备份-4" cx="112" cy="3" r="3"></circle>
                            <circle id="椭圆形备份-8" cx="258" cy="3" r="3"></circle>
                            <circle id="椭圆形备份-12" cx="404" cy="3" r="3"></circle>
                            <circle id="椭圆形备份-16" cx="549" cy="3" r="3"></circle>
                        </g>
                        <g id="编组-5备份" transform="translate(0.000000, 36.000000)">
                            <circle id="椭圆形" cx="3" cy="3" r="3"></circle>
                            <circle id="椭圆形备份-5" cx="149" cy="3" r="3"></circle>
                            <circle id="椭圆形备份-9" cx="294" cy="3" r="3"></circle>
                            <circle id="椭圆形备份-13" cx="440" cy="3" r="3"></circle>
                            <circle id="椭圆形备份-17" cx="586" cy="3" r="3"></circle>
                            <circle id="椭圆形备份-2" cx="39" cy="3" r="3"></circle>
                            <circle id="椭圆形备份-6" cx="185" cy="3" r="3"></circle>
                            <circle id="椭圆形备份-10" cx="331" cy="3" r="3"></circle>
                            <circle id="椭圆形备份-14" cx="476" cy="3" r="3"></circle>
                            <circle id="椭圆形备份-18" cx="622" cy="3" r="3"></circle>
                            <circle id="椭圆形备份-3" cx="76" cy="3" r="3"></circle>
                            <circle id="椭圆形备份-7" cx="222" cy="3" r="3"></circle>
                            <circle id="椭圆形备份-11" cx="367" cy="3" r="3"></circle>
                            <circle id="椭圆形备份-15" cx="513" cy="3" r="3"></circle>
                            <circle id="椭圆形备份-19" cx="659" cy="3" r="3"></circle>
                            <circle id="椭圆形备份-4" cx="112" cy="3" r="3"></circle>
                            <circle id="椭圆形备份-8" cx="258" cy="3" r="3"></circle>
                            <circle id="椭圆形备份-12" cx="404" cy="3" r="3"></circle>
                            <circle id="椭圆形备份-16" cx="549" cy="3" r="3"></circle>
                        </g>
                        <g id="编组-5备份-5" transform="translate(0.000000, 180.000000)">
                            <circle id="椭圆形" cx="3" cy="3" r="3"></circle>
                            <circle id="椭圆形备份-5" cx="149" cy="3" r="3"></circle>
                            <circle id="椭圆形备份-9" cx="294" cy="3" r="3"></circle>
                            <circle id="椭圆形备份-13" cx="440" cy="3" r="3"></circle>
                            <circle id="椭圆形备份-17" cx="586" cy="3" r="3"></circle>
                            <circle id="椭圆形备份-2" cx="39" cy="3" r="3"></circle>
                            <circle id="椭圆形备份-6" cx="185" cy="3" r="3"></circle>
                            <circle id="椭圆形备份-10" cx="331" cy="3" r="3"></circle>
                            <circle id="椭圆形备份-14" cx="476" cy="3" r="3"></circle>
                            <circle id="椭圆形备份-18" cx="622" cy="3" r="3"></circle>
                            <circle id="椭圆形备份-3" cx="76" cy="3" r="3"></circle>
                            <circle id="椭圆形备份-7" cx="222" cy="3" r="3"></circle>
                            <circle id="椭圆形备份-11" cx="367" cy="3" r="3"></circle>
                            <circle id="椭圆形备份-15" cx="513" cy="3" r="3"></circle>
                            <circle id="椭圆形备份-19" cx="659" cy="3" r="3"></circle>
                            <circle id="椭圆形备份-4" cx="112" cy="3" r="3"></circle>
                            <circle id="椭圆形备份-8" cx="258" cy="3" r="3"></circle>
                            <circle id="椭圆形备份-12" cx="404" cy="3" r="3"></circle>
                            <circle id="椭圆形备份-16" cx="549" cy="3" r="3"></circle>
                        </g>
                        <g id="编组-5备份-2" transform="translate(0.000000, 72.000000)">
                            <circle id="椭圆形" cx="3" cy="3" r="3"></circle>
                            <circle id="椭圆形备份-5" cx="149" cy="3" r="3"></circle>
                            <circle id="椭圆形备份-9" cx="294" cy="3" r="3"></circle>
                            <circle id="椭圆形备份-13" cx="440" cy="3" r="3"></circle>
                            <circle id="椭圆形备份-17" cx="586" cy="3" r="3"></circle>
                            <circle id="椭圆形备份-2" cx="39" cy="3" r="3"></circle>
                            <circle id="椭圆形备份-6" cx="185" cy="3" r="3"></circle>
                            <circle id="椭圆形备份-10" cx="331" cy="3" r="3"></circle>
                            <circle id="椭圆形备份-14" cx="476" cy="3" r="3"></circle>
                            <circle id="椭圆形备份-18" cx="622" cy="3" r="3"></circle>
                            <circle id="椭圆形备份-3" cx="76" cy="3" r="3"></circle>
                            <circle id="椭圆形备份-7" cx="222" cy="3" r="3"></circle>
                            <circle id="椭圆形备份-11" cx="367" cy="3" r="3"></circle>
                            <circle id="椭圆形备份-15" cx="513" cy="3" r="3"></circle>
                            <circle id="椭圆形备份-19" cx="659" cy="3" r="3"></circle>
                            <circle id="椭圆形备份-4" cx="112" cy="3" r="3"></circle>
                            <circle id="椭圆形备份-8" cx="258" cy="3" r="3"></circle>
                            <circle id="椭圆形备份-12" cx="404" cy="3" r="3"></circle>
                            <circle id="椭圆形备份-16" cx="549" cy="3" r="3"></circle>
                        </g>
                        <g id="编组-5备份-6" transform="translate(0.000000, 216.000000)">
                            <circle id="椭圆形" cx="3" cy="3" r="3"></circle>
                            <circle id="椭圆形备份-5" cx="149" cy="3" r="3"></circle>
                            <circle id="椭圆形备份-9" cx="294" cy="3" r="3"></circle>
                            <circle id="椭圆形备份-13" cx="440" cy="3" r="3"></circle>
                            <circle id="椭圆形备份-17" cx="586" cy="3" r="3"></circle>
                            <circle id="椭圆形备份-2" cx="39" cy="3" r="3"></circle>
                            <circle id="椭圆形备份-6" cx="185" cy="3" r="3"></circle>
                            <circle id="椭圆形备份-10" cx="331" cy="3" r="3"></circle>
                            <circle id="椭圆形备份-14" cx="476" cy="3" r="3"></circle>
                            <circle id="椭圆形备份-18" cx="622" cy="3" r="3"></circle>
                            <circle id="椭圆形备份-3" cx="76" cy="3" r="3"></circle>
                            <circle id="椭圆形备份-7" cx="222" cy="3" r="3"></circle>
                            <circle id="椭圆形备份-11" cx="367" cy="3" r="3"></circle>
                            <circle id="椭圆形备份-15" cx="513" cy="3" r="3"></circle>
                            <circle id="椭圆形备份-19" cx="659" cy="3" r="3"></circle>
                            <circle id="椭圆形备份-4" cx="112" cy="3" r="3"></circle>
                            <circle id="椭圆形备份-8" cx="258" cy="3" r="3"></circle>
                            <circle id="椭圆形备份-12" cx="404" cy="3" r="3"></circle>
                            <circle id="椭圆形备份-16" cx="549" cy="3" r="3"></circle>
                        </g>
                        <g id="编组-5备份-3" transform="translate(0.000000, 108.000000)">
                            <circle id="椭圆形" cx="3" cy="3" r="3"></circle>
                            <circle id="椭圆形备份-5" cx="149" cy="3" r="3"></circle>
                            <circle id="椭圆形备份-9" cx="294" cy="3" r="3"></circle>
                            <circle id="椭圆形备份-13" cx="440" cy="3" r="3"></circle>
                            <circle id="椭圆形备份-17" cx="586" cy="3" r="3"></circle>
                            <circle id="椭圆形备份-2" cx="39" cy="3" r="3"></circle>
                            <circle id="椭圆形备份-6" cx="185" cy="3" r="3"></circle>
                            <circle id="椭圆形备份-10" cx="331" cy="3" r="3"></circle>
                            <circle id="椭圆形备份-14" cx="476" cy="3" r="3"></circle>
                            <circle id="椭圆形备份-18" cx="622" cy="3" r="3"></circle>
                            <circle id="椭圆形备份-3" cx="76" cy="3" r="3"></circle>
                            <circle id="椭圆形备份-7" cx="222" cy="3" r="3"></circle>
                            <circle id="椭圆形备份-11" cx="367" cy="3" r="3"></circle>
                            <circle id="椭圆形备份-15" cx="513" cy="3" r="3"></circle>
                            <circle id="椭圆形备份-19" cx="659" cy="3" r="3"></circle>
                            <circle id="椭圆形备份-4" cx="112" cy="3" r="3"></circle>
                            <circle id="椭圆形备份-8" cx="258" cy="3" r="3"></circle>
                            <circle id="椭圆形备份-12" cx="404" cy="3" r="3"></circle>
                            <circle id="椭圆形备份-16" cx="549" cy="3" r="3"></circle>
                        </g>
                        <g id="编组-5备份-7" transform="translate(0.000000, 252.000000)">
                            <circle id="椭圆形" cx="3" cy="3" r="3"></circle>
                            <circle id="椭圆形备份-5" cx="149" cy="3" r="3"></circle>
                            <circle id="椭圆形备份-9" cx="294" cy="3" r="3"></circle>
                            <circle id="椭圆形备份-13" cx="440" cy="3" r="3"></circle>
                            <circle id="椭圆形备份-17" cx="586" cy="3" r="3"></circle>
                            <circle id="椭圆形备份-2" cx="39" cy="3" r="3"></circle>
                            <circle id="椭圆形备份-6" cx="185" cy="3" r="3"></circle>
                            <circle id="椭圆形备份-10" cx="331" cy="3" r="3"></circle>
                            <circle id="椭圆形备份-14" cx="476" cy="3" r="3"></circle>
                            <circle id="椭圆形备份-18" cx="622" cy="3" r="3"></circle>
                            <circle id="椭圆形备份-3" cx="76" cy="3" r="3"></circle>
                            <circle id="椭圆形备份-7" cx="222" cy="3" r="3"></circle>
                            <circle id="椭圆形备份-11" cx="367" cy="3" r="3"></circle>
                            <circle id="椭圆形备份-15" cx="513" cy="3" r="3"></circle>
                            <circle id="椭圆形备份-19" cx="659" cy="3" r="3"></circle>
                            <circle id="椭圆形备份-4" cx="112" cy="3" r="3"></circle>
                            <circle id="椭圆形备份-8" cx="258" cy="3" r="3"></circle>
                            <circle id="椭圆形备份-12" cx="404" cy="3" r="3"></circle>
                            <circle id="椭圆形备份-16" cx="549" cy="3" r="3"></circle>
                        </g>
                        <g id="编组-5备份-8" transform="translate(0.000000, 288.000000)">
                            <circle id="椭圆形" cx="3" cy="3" r="3"></circle>
                            <circle id="椭圆形备份-5" cx="149" cy="3" r="3"></circle>
                            <circle id="椭圆形备份-9" cx="294" cy="3" r="3"></circle>
                            <circle id="椭圆形备份-13" cx="440" cy="3" r="3"></circle>
                            <circle id="椭圆形备份-17" cx="586" cy="3" r="3"></circle>
                            <circle id="椭圆形备份-2" cx="39" cy="3" r="3"></circle>
                            <circle id="椭圆形备份-6" cx="185" cy="3" r="3"></circle>
                            <circle id="椭圆形备份-10" cx="331" cy="3" r="3"></circle>
                            <circle id="椭圆形备份-14" cx="476" cy="3" r="3"></circle>
                            <circle id="椭圆形备份-18" cx="622" cy="3" r="3"></circle>
                            <circle id="椭圆形备份-3" cx="76" cy="3" r="3"></circle>
                            <circle id="椭圆形备份-7" cx="222" cy="3" r="3"></circle>
                            <circle id="椭圆形备份-11" cx="367" cy="3" r="3"></circle>
                            <circle id="椭圆形备份-15" cx="513" cy="3" r="3"></circle>
                            <circle id="椭圆形备份-19" cx="659" cy="3" r="3"></circle>
                            <circle id="椭圆形备份-4" cx="112" cy="3" r="3"></circle>
                            <circle id="椭圆形备份-8" cx="258" cy="3" r="3"></circle>
                            <circle id="椭圆形备份-12" cx="404" cy="3" r="3"></circle>
                            <circle id="椭圆形备份-16" cx="549" cy="3" r="3"></circle>
                        </g>
                    </g>
                </g>
                <g id="编组-10" transform="translate(196.000000, 45.500000)">
                    <polyline id="路径-41" stroke="#FFFFFF" stroke-width="5" stroke-linecap="round" points="0 -6.37916803e-13 0 183.5 270 183.5"></polyline>
                    <path d="M33,151.862244 C61,114.38327 94.6912333,96.5958557 134.0737,98.5 C173.456167,100.404144 203.598267,80.070811 224.5,37.5" id="路径-42" stroke="#FFFFFF" stroke-width="5" stroke-linecap="round"></path>
                    <line x1="33" y1="183.5" x2="33" y2="172.5" id="路径-43" stroke="#FFFFFF" stroke-width="5" stroke-linecap="round"></line>
                    <line x1="10.6441193" y1="152.144119" x2="3.64411926" y2="152.144119" id="路径-43备份-7" stroke="#FFFFFF" stroke-width="5" stroke-linecap="round"></line>
                    <line x1="10.6441193" y1="120.144119" x2="3.64411926" y2="120.144119" id="路径-43备份-8" stroke="#FFFFFF" stroke-width="5" stroke-linecap="round"></line>
                    <line x1="10.6441193" y1="88.1441193" x2="3.64411926" y2="88.1441193" id="路径-43备份-9" stroke="#FFFFFF" stroke-width="5" stroke-linecap="round"></line>
                    <line x1="10.6441193" y1="56.1441193" x2="3.64411926" y2="56.1441193" id="路径-43备份-10" stroke="#FFFFFF" stroke-width="5" stroke-linecap="round"></line>
                    <line x1="10.6441193" y1="24.1441193" x2="3.64411926" y2="24.1441193" id="路径-43备份-11" stroke="#FFFFFF" stroke-width="5" stroke-linecap="round"></line>
                    <line x1="65.5" y1="183.5" x2="65.5" y2="172.5" id="路径-43备份" stroke="#FFFFFF" stroke-width="5" stroke-linecap="round"></line>
                    <line x1="97.5" y1="183.5" x2="97.5" y2="172.5" id="路径-43备份-2" stroke="#FFFFFF" stroke-width="5" stroke-linecap="round"></line>
                    <line x1="129.5" y1="183.5" x2="129.5" y2="172.5" id="路径-43备份-3" stroke="#FFFFFF" stroke-width="5" stroke-linecap="round"></line>
                    <line x1="161.5" y1="183.5" x2="161.5" y2="172.5" id="路径-43备份-4" stroke="#FFFFFF" stroke-width="5" stroke-linecap="round"></line>
                    <line x1="193.5" y1="183.5" x2="193.5" y2="172.5" id="路径-43备份-5" stroke="#FFFFFF" stroke-width="5" stroke-linecap="round"></line>
                    <line x1="225.5" y1="183.5" x2="225.5" y2="172.5" id="路径-43备份-6" stroke="#FFFFFF" stroke-width="5" stroke-linecap="round"></line>
                    <circle id="椭圆形" fill="#FFFC04" cx="193" cy="78.5" r="8"></circle>
                    <circle id="椭圆形" fill="#FFFC04" opacity="0.394403367" cx="193" cy="78.5" r="16"></circle>
                    <g id="编组-7" transform="translate(48.684570, 29.087524)">
                        <polygon id="矩形" fill="#FFFB04" points="0 0 104.104309 -1.45115359e-13 104.104309 28.2471008 120.31543 41 0 41"></polygon>
                        <line x1="18.3154297" y1="14.9124756" x2="86.3154297" y2="14.9124756" id="路径-44" stroke="#000000" stroke-width="5" stroke-linecap="round"></line>
                        <line x1="18.3154297" y1="25.9124756" x2="44.7015927" y2="25.9124756" id="路径-44备份" stroke="#000000" stroke-width="5" stroke-linecap="round"></line>
                    </g>
                </g>
            </g>
        </g>
    </g>
</svg>