<?xml version="1.0" encoding="UTF-8"?>
<svg width="34px" height="34px" viewBox="0 0 34 34" version="1.1" xmlns="http://www.w3.org/2000/svg" xmlns:xlink="http://www.w3.org/1999/xlink">
    <title>icon_5</title>
    <defs>
        <filter x="-19.6%" y="-21.5%" width="139.2%" height="135.5%" filterUnits="objectBoundingBox" id="filter-1">
            <feGaussianBlur stdDeviation="2" in="SourceGraphic"></feGaussianBlur>
        </filter>
        <linearGradient x1="71.1489214%" y1="-7.10542736e-13%" x2="24.6906114%" y2="100%" id="linearGradient-2">
            <stop stop-color="#FFFFFF" stop-opacity="0" offset="0%"></stop>
            <stop stop-color="#FFFFFF" stop-opacity="0.514508441" offset="100%"></stop>
        </linearGradient>
        <linearGradient x1="71.367328%" y1="22.1642896%" x2="23.5242564%" y2="100%" id="linearGradient-3">
            <stop stop-color="#FFFFFF" stop-opacity="0.9268722" offset="0%"></stop>
            <stop stop-color="#FFFC04" offset="100%"></stop>
        </linearGradient>
    </defs>
    <g id="页面-1" stroke="none" stroke-width="1" fill="none" fill-rule="evenodd">
        <g id="首页-搭配色" transform="translate(-1240.000000, -859.000000)">
            <g id="编组-32" transform="translate(0.000000, 822.000000)">
                <g id="icon_5" transform="translate(1240.000000, 18.000000)">
                    <g id="编组-52" transform="translate(4.000000, 24.000000)">
                        <path d="M10.5346589,16.7446443 L6.32783438,18.9563028 C5.83898979,19.2133036 5.23436264,19.0253571 4.97736183,18.5365125 C4.87502276,18.3418521 4.83970808,18.118884 4.87688493,17.9021263 L5.68031691,13.2177584 C5.73595485,12.8933644 5.62840637,12.5623642 5.39272028,12.332627 L1.98932777,9.01513923 C1.59384419,8.62963801 1.58575189,7.99652475 1.9712531,7.60104117 C2.1247617,7.44355754 2.32590411,7.34107036 2.54354115,7.30944585 L7.24691392,6.62600578 C7.57262408,6.57867732 7.85418966,6.37410795 7.99985168,6.07896448 L10.1032639,1.81698575 C10.3476862,1.32173209 10.9473121,1.11839309 11.4425657,1.36281539 C11.6397783,1.46014562 11.7994058,1.61977315 11.8967361,1.81698575 L14.0001483,6.07896448 C14.1458103,6.37410795 14.4273759,6.57867732 14.7530861,6.62600578 L19.4564589,7.30944585 C20.0030037,7.38886347 20.3816852,7.89630632 20.3022676,8.44285118 C20.270643,8.66048821 20.1681559,8.86163062 20.0106722,9.01513923 L16.6072797,12.332627 C16.3715936,12.5623642 16.2640451,12.8933644 16.3196831,13.2177584 L17.1231151,17.9021263 C17.2164761,18.4464628 16.8508883,18.9634187 16.3065518,19.0567797 C16.0897942,19.0939566 15.8668261,19.0586419 15.6721656,18.9563028 L11.4653411,16.7446443 C11.1740171,16.5914862 10.8259829,16.5914862 10.5346589,16.7446443 Z" id="星形备份" fill-opacity="0.369041603" fill="#FFFC04" filter="url(#filter-1)"></path>
                        <path d="M16.5182796,2.8390074 C16.8818285,2.71572439 17.2924083,2.73113063 17.6638486,2.91444735 C17.9596675,3.06044271 18.1991088,3.29988399 18.3451041,3.59570289 L18.3451041,3.59570289 L20.4485164,7.85768162 L25.528358,8.81464234 C25.9382667,8.87420555 26.2852265,9.09427823 26.5148184,9.40193726 C26.7444103,9.7095963 26.8566343,10.1048417 26.7970711,10.5147503 C26.7496343,10.8412059 26.5959035,11.1429195 26.3596781,11.3731824 L26.3596781,11.3731824 L22.9562856,14.6906702 L23.6159192,19.8176038 C23.68594,20.2258562 23.5838549,20.6238408 23.3622016,20.9372675 C23.1405483,21.2506943 22.7993267,21.4795631 22.3910743,21.5495839 C22.0659379,21.6053492 21.7314858,21.5523771 21.4394951,21.3988685 L21.4394951,21.3988685 L17.2326706,19.18721 L12.5605049,21.3988685 C12.1938715,21.5916191 11.7838196,21.6175145 11.4172384,21.5035639 C11.0506572,21.3896132 10.7275467,21.1358165 10.5347961,20.7691831 C10.3812875,20.4771924 10.3283155,20.1427403 10.3840808,19.8176038 L10.3840808,19.8176038 L11.1875128,15.1332359 L7.64032193,11.3731824 C7.34370924,11.0840565 7.19236829,10.7020761 7.18746198,10.3182239 C7.18255567,9.93437183 7.32408401,9.54864801 7.61320992,9.25203533 C7.84347282,9.01580987 8.14518644,8.86207911 8.47164199,8.81464234 L8.47164199,8.81464234 L13.1750148,8.13120227 L15.6548959,3.59570289 C15.8382126,3.22426265 16.1547307,2.9622904 16.5182796,2.8390074 Z" id="星形" stroke="url(#linearGradient-3)" fill="url(#linearGradient-2)"></path>
                        <line x1="13" y1="12.4981841" x2="20.7225585" y2="12.4981841" id="路径-4" stroke="#FFFFFF" stroke-width="1.4" stroke-linecap="round"></line>
                    </g>
                </g>
            </g>
        </g>
    </g>
</svg>