<?xml version="1.0" encoding="UTF-8"?>
<svg width="25px" height="25px" viewBox="0 0 25 25" version="1.1" xmlns="http://www.w3.org/2000/svg" xmlns:xlink="http://www.w3.org/1999/xlink">
    <title>编组 23</title>
    <g id="页面-1" stroke="none" stroke-width="1" fill="none" fill-rule="evenodd">
        <g id="首页-整个背景" transform="translate(-1629.000000, -21.000000)">
            <g id="编组-27" transform="translate(1530.000000, 21.000000)">
                <g id="编组-23" transform="translate(99.000000, 0.000000)">
                    <rect id="矩形备份-13" fill="#000000" x="0" y="0" width="25" height="25" rx="1.8"></rect>
                    <g id="形状-2" transform="translate(4.482353, 3.600000)" fill="#FFFFFF" fill-rule="nonzero">
                        <path d="M15.8062088,0 L2.11143828,0 C0.927546343,0 0,0.888126815 0,2.02124637 L0,15.2819022 C0,16.3843659 0.927546343,17.3030978 2.11143828,17.3030978 L13.7258657,17.3030978 L13.1820793,15.4962681 L14.494144,16.66 L15.7417432,17.7625363 L17.9176471,19.6 L17.9176471,2.02124637 C17.9176471,0.888126815 16.9901007,0 15.8062088,0 Z M11.870773,12.8012681 C11.870773,12.8012681 11.4862546,12.3725363 11.1988138,12.005 C12.5427322,11.6374637 13.0539065,10.8412681 13.0539065,10.8412681 C12.6382929,11.1169022 12.2226794,11.3006341 11.870773,11.4230978 C11.3588402,11.6374637 10.878761,11.76 10.3986819,11.8519022 C9.4066699,12.0356341 8.51097716,11.9743659 7.74269879,11.8519022 C7.16705882,11.7293659 6.65512605,11.5762681 6.23951248,11.4230978 C6.01502048,11.3312681 5.7594333,11.2393659 5.50308771,11.0862681 C5.47123411,11.0556341 5.43938052,11.0556341 5.40752692,11.025 C5.37491491,11.025 5.37491491,10.9943659 5.37491491,10.9943659 C5.18303492,10.9025363 5.08747414,10.8412681 5.08747414,10.8412681 C5.08747414,10.8412681 5.56755331,11.6374637 6.87885963,12.005 C6.55880685,12.3725363 6.20690047,12.8319022 6.20690047,12.8319022 C3.93543579,12.7706341 3.07159664,11.3312681 3.07159664,11.3312681 C3.07159664,8.17690222 4.54368777,5.60437319 4.54368777,5.60437319 C6.01502048,4.5325 7.42340442,4.56312681 7.42340442,4.56312681 L7.5189652,4.68562681 C5.6631141,5.20625363 4.79927495,5.97187319 4.79927495,5.97187319 C4.79927495,5.97187319 5.02300853,5.84937319 5.40752692,5.69625363 C6.49509966,5.23687319 7.35893881,5.11437319 7.74269879,5.08375363 C7.80716439,5.08375363 7.87087158,5.05312681 7.90272518,5.05312681 C8.54283075,4.96124637 9.24664351,4.96124637 9.98306829,5.0225 C10.9424682,5.145 11.9981874,5.39 13.0539065,5.97187319 C13.0539065,5.97187319 12.254533,5.23687319 10.4942426,4.71624637 L10.6224154,4.56312681 C10.6224154,4.56312681 12.0307994,4.5325 13.5021321,5.60437319 C13.5021321,5.60437319 14.9742232,8.17690222 14.9742232,11.3312681 C15.0060768,11.3006341 14.1422377,12.74 11.870773,12.8012681 Z" id="形状"></path>
                    </g>
                </g>
            </g>
        </g>
    </g>
</svg>