<svg width="85" height="36" viewBox="0 0 85 36" fill="none" xmlns="http://www.w3.org/2000/svg">
<path d="M45.6907 29.5625C45.3372 29.5625 44.9936 29.5428 44.6598 29.5035C44.326 29.4643 44.0412 29.4152 43.8056 29.3563C43.57 29.317 43.4227 29.2974 43.3638 29.2974L43.7172 26.3519C43.9529 26.3912 44.2867 26.4501 44.7187 26.5286C45.1703 26.5876 45.5925 26.617 45.9852 26.617C46.3387 26.617 46.6332 26.5286 46.8689 26.3519C47.1045 26.1752 47.2812 25.7825 47.399 25.1737C47.5365 24.565 47.6052 23.6126 47.6052 22.3166V8.59082H51.0514V22.081C51.0514 23.9465 50.8158 25.429 50.3445 26.5286C49.8732 27.6086 49.235 28.3843 48.4299 28.8556C47.6249 29.3268 46.7118 29.5625 45.6907 29.5625Z" fill="white"/>
<path d="M53.497 29.1796L59.1229 8.59082H63.7178L69.3436 29.1796H65.809L64.2185 22.8468L66.0741 24.1428H56.796L58.5927 22.8468L57.0316 29.1796H53.497ZM58.5927 22.729L57.444 21.1679H65.3967L64.2479 22.729L61.1552 10.2403L63.0403 11.7425H59.8003L61.6854 10.2403L58.5927 22.729Z" fill="white"/>
<path d="M70.1133 29.1796V26.3814L80.2751 11.6246V11.4185L70.7024 11.5657V8.59082H84.3104V11.3595L74.2959 26.1457V26.3519L84.6049 26.2046V29.1796H70.1133Z" fill="white"/>
<ellipse cx="18" cy="18" rx="18" ry="18" fill="white"/>
<g filter="url(#filter0_b_600_1681)">
<path fill-rule="evenodd" clip-rule="evenodd" d="M14.7277 12.2717C14.7277 12.9495 14.1783 13.499 13.5005 13.499C12.8227 13.499 12.2732 12.9495 12.2732 12.2717C12.2732 11.5939 12.8227 11.0444 13.5005 11.0444C14.1783 11.0444 14.7277 11.5939 14.7277 12.2717ZM8.79583 15.955C9.58661 15.955 10.2277 15.3139 10.2277 14.5231C10.2277 13.7324 9.58661 13.0913 8.79583 13.0913C8.00506 13.0913 7.36401 13.7324 7.36401 14.5231C7.36401 15.3139 8.00506 15.955 8.79583 15.955ZM13.0913 17.999C13.7691 17.999 14.3186 17.4495 14.3186 16.7717C14.3186 16.0939 13.7691 15.5444 13.0913 15.5444C12.4135 15.5444 11.864 16.0939 11.864 16.7717C11.864 17.4495 12.4135 17.999 13.0913 17.999ZM19.8056 15.4116V20.1821C19.8056 21.6642 18.6042 22.8656 17.1222 22.8656C15.6401 22.8656 14.4387 21.6642 14.4387 20.1821V19.884H12.0535V20.1821C12.0535 22.9815 14.3228 25.2508 17.1222 25.2508C19.9215 25.2508 22.1908 22.9815 22.1908 20.1821V15.4116H19.8056Z" fill="url(#paint0_linear_600_1681)"/>
</g>
<path fill-rule="evenodd" clip-rule="evenodd" d="M19.8787 7.65967H26.96V20.0307C26.96 25.4661 22.5537 29.8724 17.1182 29.8724C11.5529 29.8724 7.09687 25.2548 7.28219 19.6953L9.66613 19.7748C9.52565 23.9893 12.9041 27.4872 17.1182 27.4872C21.2363 27.4872 24.5747 24.1488 24.5747 20.0307V10.0449H19.8787V7.65967Z" fill="black"/>
<defs>
<filter id="filter0_b_600_1681" x="-36.636" y="-32.9556" width="102.827" height="102.207" filterUnits="userSpaceOnUse" color-interpolation-filters="sRGB">
<feFlood flood-opacity="0" result="BackgroundImageFix"/>
<feGaussianBlur in="BackgroundImage" stdDeviation="22"/>
<feComposite in2="SourceAlpha" operator="in" result="effect1_backgroundBlur_600_1681"/>
<feBlend mode="normal" in="SourceGraphic" in2="effect1_backgroundBlur_600_1681" result="shape"/>
</filter>
<linearGradient id="paint0_linear_600_1681" x1="19.5002" y1="22.8752" x2="9.75015" y2="11.6252" gradientUnits="userSpaceOnUse">
<stop stop-color="#43ECBB"/>
<stop offset="1" stop-color="#C54BFF"/>
</linearGradient>
</defs>
</svg>
