<?xml version="1.0" encoding="UTF-8"?>
<svg width="80px" height="40px" viewBox="0 0 80 40" version="1.1" xmlns="http://www.w3.org/2000/svg" xmlns:xlink="http://www.w3.org/1999/xlink">
    <title>logo</title>
    <defs>
        <linearGradient x1="81.8526712%" y1="80.5514577%" x2="16.0929269%" y2="7.85015858%" id="linearGradient-1">
            <stop stop-color="#43ECBB" offset="0%"></stop>
            <stop stop-color="#C54BFF" offset="100%"></stop>
        </linearGradient>
    </defs>
    <g id="页面-1" stroke="none" stroke-width="1" fill="none" fill-rule="evenodd">
        <g id="首页-整个背景" transform="translate(-259.000000, -11.000000)">
            <g id="编组-8" transform="translate(259.000000, 11.000000)">
                <g id="编组-21" transform="translate(1.000000, 1.000000)">
                    <g id="编组" transform="translate(46.000000, 12.000000)" fill="#000000" fill-rule="nonzero">
                        <path d="M1.86192837,17 C1.57909955,17 1.30413643,16.9840308 1.03702299,16.9522546 C0.769909554,16.9203973 0.542076563,16.880596 0.35352962,16.8328506 C0.164980276,16.8009933 0.047137336,16.7851052 0,16.7851052 L0.282824016,14.3974304 C0.47137336,14.4292877 0.738486797,14.4770331 1.08416113,14.5407476 C1.44554284,14.588493 1.78336748,14.6123252 2.09761105,14.6123252 C2.38043987,14.6123252 2.61612255,14.5407476 2.80467509,14.3974304 C2.99321963,14.2541942 3.13463404,13.9358646 3.22891031,13.4424415 C3.33889396,12.9489374 3.39388979,12.176986 3.39388979,11.1264253 L3.39388979,0 L6.15142674,0 L6.15142674,10.9353627 C6.15142674,12.4475702 5.9628742,13.6493112 5.58577711,14.5407476 C5.20868002,15.4162149 4.69802622,16.0449301 4.05381569,16.4269743 C3.40960517,16.8089374 2.67897606,17 1.86192837,17 Z" id="路径"></path>
                        <path d="M8.10832754,16.6896144 L12.6100155,0 L16.2867261,0 L20.7883341,16.6896144 L17.960046,16.6896144 L16.6873723,11.5561338 L18.1721716,12.6066945 L10.7480952,12.6066945 L12.1857643,11.5561338 L10.9366157,16.6896144 L8.10832754,16.6896144 Z M12.1857643,11.460643 L11.2666067,10.1951875 L17.630135,10.1951875 L16.7108973,11.460643 L14.2362052,1.33708007 L15.7446096,2.55477397 L13.1520521,2.55477397 L14.6604564,1.33708007 L12.1857643,11.460643 Z" id="形状"></path>
                        <polygon id="路径" points="21.4042266 16.6896144 21.4042266 14.4213436 29.535415 2.45926698 29.535415 2.29213379 21.8756079 2.41151348 21.8756079 0 32.7643493 0 32.7643493 2.2443803 24.7510262 14.230362 24.7510262 14.3974304 33 14.2781074 33 16.6896144"></polygon>
                    </g>
                    <g id="编组">
                        <circle id="椭圆形" stroke="#000000" stroke-width="2" fill="#FFFFFF" fill-rule="nonzero" cx="19" cy="19" r="19"></circle>
                        <path d="M15.5460111,12.953725 C15.5460111,13.6691806 14.9660361,14.2491556 14.2505806,14.2491556 C13.535125,14.2491556 12.9550972,13.6691806 12.9550972,12.953725 C12.9550972,12.2382694 13.535125,11.6582944 14.2505806,11.6582944 C14.9660361,11.6582944 15.5460111,12.2382694 15.5460111,12.953725 Z M9.28471944,16.8415472 C10.1194,16.8415472 10.7960639,16.1648833 10.7960639,15.3302028 C10.7960639,14.4954694 10.1194,13.8188056 9.28471944,13.8188056 C8.44998611,13.8188056 7.77332222,14.4954694 7.77332222,15.3302028 C7.77332222,16.1648833 8.44998611,16.8415472 9.28471944,16.8415472 Z M13.8188056,18.9991556 C14.5342611,18.9991556 15.1142361,18.4191806 15.1142361,17.703725 C15.1142361,16.9882694 14.5342611,16.4082944 13.8188056,16.4082944 C13.10335,16.4082944 12.5233222,16.9882694 12.5233222,17.703725 C12.5233222,18.4191806 13.10335,18.9991556 13.8188056,18.9991556 Z M20.9059639,16.2680639 L20.9059639,21.3035917 C20.9059639,22.867925 19.6378194,24.1361222 18.0734861,24.1361222 C16.5091,24.1361222 15.2409556,22.8679778 15.2409556,21.3035917 L15.2409556,20.9888778 L12.7231917,20.9888778 L12.7231917,21.3035917 C12.7231917,24.2584611 15.1185639,26.6538861 18.0734861,26.6538861 C21.0283556,26.6538861 23.4237278,24.2584611 23.4237278,21.3035917 L23.4237278,16.2680639 L20.9059639,16.2680639 Z" id="形状" fill="url(#linearGradient-1)"></path>
                        <path d="M20.9830722,8.08534444 L28.457725,8.08534444 L28.457725,21.1436222 C28.457725,26.8810417 23.8066306,31.5321361 18.0692111,31.5321361 C12.1947278,31.5321361 7.49111944,26.6580028 7.68676667,20.7896417 L10.2031583,20.8735056 C10.0548528,25.3221444 13.6209944,29.0143722 18.0692111,29.0143722 C22.4160944,29.0143722 25.9399611,25.4905056 25.9399611,21.1436222 L25.9399611,10.6031083 L20.9830722,10.6031083 L20.9830722,8.08534444 Z" id="路径" fill="#000000"></path>
                    </g>
                </g>
            </g>
        </g>
    </g>
</svg>