<?xml version="1.0" encoding="UTF-8"?>
<svg width="662px" height="294px" viewBox="0 0 662 294" version="1.1" xmlns="http://www.w3.org/2000/svg" xmlns:xlink="http://www.w3.org/1999/xlink">
    <title>编组 30</title>
    <g id="页面-1" stroke="none" stroke-width="1" fill="none" fill-rule="evenodd">
        <g id="token" transform="translate(-998.000000, -764.000000)">
            <g id="编组-30" transform="translate(998.000000, 764.000000)">
                <g id="编组-6备份" opacity="0.200000003" fill="#FFFFFF">
                    <g id="编组-5">
                        <circle id="椭圆形" cx="3" cy="3" r="3"></circle>
                        <circle id="椭圆形备份-5" cx="149" cy="3" r="3"></circle>
                        <circle id="椭圆形备份-9" cx="294" cy="3" r="3"></circle>
                        <circle id="椭圆形备份-13" cx="440" cy="3" r="3"></circle>
                        <circle id="椭圆形备份-17" cx="586" cy="3" r="3"></circle>
                        <circle id="椭圆形备份-2" cx="39" cy="3" r="3"></circle>
                        <circle id="椭圆形备份-6" cx="185" cy="3" r="3"></circle>
                        <circle id="椭圆形备份-10" cx="331" cy="3" r="3"></circle>
                        <circle id="椭圆形备份-14" cx="476" cy="3" r="3"></circle>
                        <circle id="椭圆形备份-18" cx="622" cy="3" r="3"></circle>
                        <circle id="椭圆形备份-3" cx="76" cy="3" r="3"></circle>
                        <circle id="椭圆形备份-7" cx="222" cy="3" r="3"></circle>
                        <circle id="椭圆形备份-11" cx="367" cy="3" r="3"></circle>
                        <circle id="椭圆形备份-15" cx="513" cy="3" r="3"></circle>
                        <circle id="椭圆形备份-19" cx="659" cy="3" r="3"></circle>
                        <circle id="椭圆形备份-4" cx="112" cy="3" r="3"></circle>
                        <circle id="椭圆形备份-8" cx="258" cy="3" r="3"></circle>
                        <circle id="椭圆形备份-12" cx="404" cy="3" r="3"></circle>
                        <circle id="椭圆形备份-16" cx="549" cy="3" r="3"></circle>
                    </g>
                    <g id="编组-5备份-4" transform="translate(0.000000, 144.000000)">
                        <circle id="椭圆形" cx="3" cy="3" r="3"></circle>
                        <circle id="椭圆形备份-5" cx="149" cy="3" r="3"></circle>
                        <circle id="椭圆形备份-9" cx="294" cy="3" r="3"></circle>
                        <circle id="椭圆形备份-13" cx="440" cy="3" r="3"></circle>
                        <circle id="椭圆形备份-17" cx="586" cy="3" r="3"></circle>
                        <circle id="椭圆形备份-2" cx="39" cy="3" r="3"></circle>
                        <circle id="椭圆形备份-6" cx="185" cy="3" r="3"></circle>
                        <circle id="椭圆形备份-10" cx="331" cy="3" r="3"></circle>
                        <circle id="椭圆形备份-14" cx="476" cy="3" r="3"></circle>
                        <circle id="椭圆形备份-18" cx="622" cy="3" r="3"></circle>
                        <circle id="椭圆形备份-3" cx="76" cy="3" r="3"></circle>
                        <circle id="椭圆形备份-7" cx="222" cy="3" r="3"></circle>
                        <circle id="椭圆形备份-11" cx="367" cy="3" r="3"></circle>
                        <circle id="椭圆形备份-15" cx="513" cy="3" r="3"></circle>
                        <circle id="椭圆形备份-19" cx="659" cy="3" r="3"></circle>
                        <circle id="椭圆形备份-4" cx="112" cy="3" r="3"></circle>
                        <circle id="椭圆形备份-8" cx="258" cy="3" r="3"></circle>
                        <circle id="椭圆形备份-12" cx="404" cy="3" r="3"></circle>
                        <circle id="椭圆形备份-16" cx="549" cy="3" r="3"></circle>
                    </g>
                    <g id="编组-5备份" transform="translate(0.000000, 36.000000)">
                        <circle id="椭圆形" cx="3" cy="3" r="3"></circle>
                        <circle id="椭圆形备份-5" cx="149" cy="3" r="3"></circle>
                        <circle id="椭圆形备份-9" cx="294" cy="3" r="3"></circle>
                        <circle id="椭圆形备份-13" cx="440" cy="3" r="3"></circle>
                        <circle id="椭圆形备份-17" cx="586" cy="3" r="3"></circle>
                        <circle id="椭圆形备份-2" cx="39" cy="3" r="3"></circle>
                        <circle id="椭圆形备份-6" cx="185" cy="3" r="3"></circle>
                        <circle id="椭圆形备份-10" cx="331" cy="3" r="3"></circle>
                        <circle id="椭圆形备份-14" cx="476" cy="3" r="3"></circle>
                        <circle id="椭圆形备份-18" cx="622" cy="3" r="3"></circle>
                        <circle id="椭圆形备份-3" cx="76" cy="3" r="3"></circle>
                        <circle id="椭圆形备份-7" cx="222" cy="3" r="3"></circle>
                        <circle id="椭圆形备份-11" cx="367" cy="3" r="3"></circle>
                        <circle id="椭圆形备份-15" cx="513" cy="3" r="3"></circle>
                        <circle id="椭圆形备份-19" cx="659" cy="3" r="3"></circle>
                        <circle id="椭圆形备份-4" cx="112" cy="3" r="3"></circle>
                        <circle id="椭圆形备份-8" cx="258" cy="3" r="3"></circle>
                        <circle id="椭圆形备份-12" cx="404" cy="3" r="3"></circle>
                        <circle id="椭圆形备份-16" cx="549" cy="3" r="3"></circle>
                    </g>
                    <g id="编组-5备份-5" transform="translate(0.000000, 180.000000)">
                        <circle id="椭圆形" cx="3" cy="3" r="3"></circle>
                        <circle id="椭圆形备份-5" cx="149" cy="3" r="3"></circle>
                        <circle id="椭圆形备份-9" cx="294" cy="3" r="3"></circle>
                        <circle id="椭圆形备份-13" cx="440" cy="3" r="3"></circle>
                        <circle id="椭圆形备份-17" cx="586" cy="3" r="3"></circle>
                        <circle id="椭圆形备份-2" cx="39" cy="3" r="3"></circle>
                        <circle id="椭圆形备份-6" cx="185" cy="3" r="3"></circle>
                        <circle id="椭圆形备份-10" cx="331" cy="3" r="3"></circle>
                        <circle id="椭圆形备份-14" cx="476" cy="3" r="3"></circle>
                        <circle id="椭圆形备份-18" cx="622" cy="3" r="3"></circle>
                        <circle id="椭圆形备份-3" cx="76" cy="3" r="3"></circle>
                        <circle id="椭圆形备份-7" cx="222" cy="3" r="3"></circle>
                        <circle id="椭圆形备份-11" cx="367" cy="3" r="3"></circle>
                        <circle id="椭圆形备份-15" cx="513" cy="3" r="3"></circle>
                        <circle id="椭圆形备份-19" cx="659" cy="3" r="3"></circle>
                        <circle id="椭圆形备份-4" cx="112" cy="3" r="3"></circle>
                        <circle id="椭圆形备份-8" cx="258" cy="3" r="3"></circle>
                        <circle id="椭圆形备份-12" cx="404" cy="3" r="3"></circle>
                        <circle id="椭圆形备份-16" cx="549" cy="3" r="3"></circle>
                    </g>
                    <g id="编组-5备份-2" transform="translate(0.000000, 72.000000)">
                        <circle id="椭圆形" cx="3" cy="3" r="3"></circle>
                        <circle id="椭圆形备份-5" cx="149" cy="3" r="3"></circle>
                        <circle id="椭圆形备份-9" cx="294" cy="3" r="3"></circle>
                        <circle id="椭圆形备份-13" cx="440" cy="3" r="3"></circle>
                        <circle id="椭圆形备份-17" cx="586" cy="3" r="3"></circle>
                        <circle id="椭圆形备份-2" cx="39" cy="3" r="3"></circle>
                        <circle id="椭圆形备份-6" cx="185" cy="3" r="3"></circle>
                        <circle id="椭圆形备份-10" cx="331" cy="3" r="3"></circle>
                        <circle id="椭圆形备份-14" cx="476" cy="3" r="3"></circle>
                        <circle id="椭圆形备份-18" cx="622" cy="3" r="3"></circle>
                        <circle id="椭圆形备份-3" cx="76" cy="3" r="3"></circle>
                        <circle id="椭圆形备份-7" cx="222" cy="3" r="3"></circle>
                        <circle id="椭圆形备份-11" cx="367" cy="3" r="3"></circle>
                        <circle id="椭圆形备份-15" cx="513" cy="3" r="3"></circle>
                        <circle id="椭圆形备份-19" cx="659" cy="3" r="3"></circle>
                        <circle id="椭圆形备份-4" cx="112" cy="3" r="3"></circle>
                        <circle id="椭圆形备份-8" cx="258" cy="3" r="3"></circle>
                        <circle id="椭圆形备份-12" cx="404" cy="3" r="3"></circle>
                        <circle id="椭圆形备份-16" cx="549" cy="3" r="3"></circle>
                    </g>
                    <g id="编组-5备份-6" transform="translate(0.000000, 216.000000)">
                        <circle id="椭圆形" cx="3" cy="3" r="3"></circle>
                        <circle id="椭圆形备份-5" cx="149" cy="3" r="3"></circle>
                        <circle id="椭圆形备份-9" cx="294" cy="3" r="3"></circle>
                        <circle id="椭圆形备份-13" cx="440" cy="3" r="3"></circle>
                        <circle id="椭圆形备份-17" cx="586" cy="3" r="3"></circle>
                        <circle id="椭圆形备份-2" cx="39" cy="3" r="3"></circle>
                        <circle id="椭圆形备份-6" cx="185" cy="3" r="3"></circle>
                        <circle id="椭圆形备份-10" cx="331" cy="3" r="3"></circle>
                        <circle id="椭圆形备份-14" cx="476" cy="3" r="3"></circle>
                        <circle id="椭圆形备份-18" cx="622" cy="3" r="3"></circle>
                        <circle id="椭圆形备份-3" cx="76" cy="3" r="3"></circle>
                        <circle id="椭圆形备份-7" cx="222" cy="3" r="3"></circle>
                        <circle id="椭圆形备份-11" cx="367" cy="3" r="3"></circle>
                        <circle id="椭圆形备份-15" cx="513" cy="3" r="3"></circle>
                        <circle id="椭圆形备份-19" cx="659" cy="3" r="3"></circle>
                        <circle id="椭圆形备份-4" cx="112" cy="3" r="3"></circle>
                        <circle id="椭圆形备份-8" cx="258" cy="3" r="3"></circle>
                        <circle id="椭圆形备份-12" cx="404" cy="3" r="3"></circle>
                        <circle id="椭圆形备份-16" cx="549" cy="3" r="3"></circle>
                    </g>
                    <g id="编组-5备份-3" transform="translate(0.000000, 108.000000)">
                        <circle id="椭圆形" cx="3" cy="3" r="3"></circle>
                        <circle id="椭圆形备份-5" cx="149" cy="3" r="3"></circle>
                        <circle id="椭圆形备份-9" cx="294" cy="3" r="3"></circle>
                        <circle id="椭圆形备份-13" cx="440" cy="3" r="3"></circle>
                        <circle id="椭圆形备份-17" cx="586" cy="3" r="3"></circle>
                        <circle id="椭圆形备份-2" cx="39" cy="3" r="3"></circle>
                        <circle id="椭圆形备份-6" cx="185" cy="3" r="3"></circle>
                        <circle id="椭圆形备份-10" cx="331" cy="3" r="3"></circle>
                        <circle id="椭圆形备份-14" cx="476" cy="3" r="3"></circle>
                        <circle id="椭圆形备份-18" cx="622" cy="3" r="3"></circle>
                        <circle id="椭圆形备份-3" cx="76" cy="3" r="3"></circle>
                        <circle id="椭圆形备份-7" cx="222" cy="3" r="3"></circle>
                        <circle id="椭圆形备份-11" cx="367" cy="3" r="3"></circle>
                        <circle id="椭圆形备份-15" cx="513" cy="3" r="3"></circle>
                        <circle id="椭圆形备份-19" cx="659" cy="3" r="3"></circle>
                        <circle id="椭圆形备份-4" cx="112" cy="3" r="3"></circle>
                        <circle id="椭圆形备份-8" cx="258" cy="3" r="3"></circle>
                        <circle id="椭圆形备份-12" cx="404" cy="3" r="3"></circle>
                        <circle id="椭圆形备份-16" cx="549" cy="3" r="3"></circle>
                    </g>
                    <g id="编组-5备份-7" transform="translate(0.000000, 252.000000)">
                        <circle id="椭圆形" cx="3" cy="3" r="3"></circle>
                        <circle id="椭圆形备份-5" cx="149" cy="3" r="3"></circle>
                        <circle id="椭圆形备份-9" cx="294" cy="3" r="3"></circle>
                        <circle id="椭圆形备份-13" cx="440" cy="3" r="3"></circle>
                        <circle id="椭圆形备份-17" cx="586" cy="3" r="3"></circle>
                        <circle id="椭圆形备份-2" cx="39" cy="3" r="3"></circle>
                        <circle id="椭圆形备份-6" cx="185" cy="3" r="3"></circle>
                        <circle id="椭圆形备份-10" cx="331" cy="3" r="3"></circle>
                        <circle id="椭圆形备份-14" cx="476" cy="3" r="3"></circle>
                        <circle id="椭圆形备份-18" cx="622" cy="3" r="3"></circle>
                        <circle id="椭圆形备份-3" cx="76" cy="3" r="3"></circle>
                        <circle id="椭圆形备份-7" cx="222" cy="3" r="3"></circle>
                        <circle id="椭圆形备份-11" cx="367" cy="3" r="3"></circle>
                        <circle id="椭圆形备份-15" cx="513" cy="3" r="3"></circle>
                        <circle id="椭圆形备份-19" cx="659" cy="3" r="3"></circle>
                        <circle id="椭圆形备份-4" cx="112" cy="3" r="3"></circle>
                        <circle id="椭圆形备份-8" cx="258" cy="3" r="3"></circle>
                        <circle id="椭圆形备份-12" cx="404" cy="3" r="3"></circle>
                        <circle id="椭圆形备份-16" cx="549" cy="3" r="3"></circle>
                    </g>
                    <g id="编组-5备份-8" transform="translate(0.000000, 288.000000)">
                        <circle id="椭圆形" cx="3" cy="3" r="3"></circle>
                        <circle id="椭圆形备份-5" cx="149" cy="3" r="3"></circle>
                        <circle id="椭圆形备份-9" cx="294" cy="3" r="3"></circle>
                        <circle id="椭圆形备份-13" cx="440" cy="3" r="3"></circle>
                        <circle id="椭圆形备份-17" cx="586" cy="3" r="3"></circle>
                        <circle id="椭圆形备份-2" cx="39" cy="3" r="3"></circle>
                        <circle id="椭圆形备份-6" cx="185" cy="3" r="3"></circle>
                        <circle id="椭圆形备份-10" cx="331" cy="3" r="3"></circle>
                        <circle id="椭圆形备份-14" cx="476" cy="3" r="3"></circle>
                        <circle id="椭圆形备份-18" cx="622" cy="3" r="3"></circle>
                        <circle id="椭圆形备份-3" cx="76" cy="3" r="3"></circle>
                        <circle id="椭圆形备份-7" cx="222" cy="3" r="3"></circle>
                        <circle id="椭圆形备份-11" cx="367" cy="3" r="3"></circle>
                        <circle id="椭圆形备份-15" cx="513" cy="3" r="3"></circle>
                        <circle id="椭圆形备份-19" cx="659" cy="3" r="3"></circle>
                        <circle id="椭圆形备份-4" cx="112" cy="3" r="3"></circle>
                        <circle id="椭圆形备份-8" cx="258" cy="3" r="3"></circle>
                        <circle id="椭圆形备份-12" cx="404" cy="3" r="3"></circle>
                        <circle id="椭圆形备份-16" cx="549" cy="3" r="3"></circle>
                    </g>
                </g>
                <g id="编组-17" transform="translate(153.514643, 73.000000)">
                    <g id="编组-16" transform="translate(0.000000, 0.000000)">
                        <g id="交货_delivery" transform="translate(0.000000, 0.000000)" stroke-linecap="round" stroke-linejoin="round" stroke-width="5">
                            <path d="M139.127332,111.148148 L167.868073,120.75 C167.868073,120.75 239.719924,106.333333 249.300171,106.333333 C258.880418,106.333333 258.880418,114.333333 249.300171,122.333333 C239.719924,130.333333 206.18906,154.333333 177.44832,154.333333 C148.707579,154.333333 129.547085,142.333333 110.386591,142.333333 C91.2260973,142.333333 62.4853566,142.333333 62.4853566,142.333333 L8.24229573e-13,141.847784" id="路径" stroke="#FFFFFF"></path>
                            <path d="M0,94.5681818 L62.4853566,94.5681818 C72.0656035,85.8409091 91.2260973,72.75 110.386591,72.75 C129.547085,72.75 175.053258,90.2045455 182.238443,98.9318182 C189.423628,107.659091 167.868073,120.75 167.868073,120.75" id="路径" stroke="#FFFFFF"></path>
                            <path d="M119.966838,48.0555556 L119.966838,9.61111111 C119.966838,4.30303861 124.255915,0 129.547085,0 L244.510048,0 C249.801218,0 254.090295,4.30303861 254.090295,9.61111111 L254.090295,83.5" id="路径" stroke="#FFFC04"></path>
                        </g>
                        <g id="编组-14" transform="translate(283.485357, 18.500000)">
                            <polyline id="路径-31" stroke="#FFFFFF" stroke-width="5" stroke-linecap="round" points="7.34661865 41.5 34.6087036 66.3907471 51.0706329 14.5208435 81.4814815 43.330986"></polyline>
                            <circle id="椭圆形" fill="#FFFFFF" cx="84.5" cy="46" r="7.5"></circle>
                            <circle id="椭圆形备份-21" fill="#FFFFFF" cx="7.5" cy="41" r="7.5"></circle>
                            <circle id="椭圆形备份-20" fill="#FFFFFF" cx="51.5" cy="12" r="12"></circle>
                            <circle id="椭圆形备份-22" stroke="#FFFFFF" stroke-width="5" fill="#000000" cx="35.5" cy="68" r="12"></circle>
                        </g>
                    </g>
                    <text id="NFT" font-family="PingFangSC-Medium, PingFang SC" font-size="37" font-weight="400" fill="#FFFC04">
                        <tspan x="151.485357" y="49">NFT</tspan>
                    </text>
                </g>
            </g>
        </g>
    </g>
</svg>