<?xml version="1.0" encoding="UTF-8"?>
<svg width="662px" height="294px" viewBox="0 0 662 294" version="1.1" xmlns="http://www.w3.org/2000/svg" xmlns:xlink="http://www.w3.org/1999/xlink">
    <title>编组 31</title>
    <g id="页面-1" stroke="none" stroke-width="1" fill="none" fill-rule="evenodd">
        <g id="token" transform="translate(-998.000000, -1281.000000)">
            <g id="编组-31" transform="translate(998.000000, 1281.000000)">
                <g id="编组-6备份-3" opacity="0.200000003" fill="#FFFFFF">
                    <g id="编组-5">
                        <circle id="椭圆形" cx="3" cy="3" r="3"></circle>
                        <circle id="椭圆形备份-5" cx="149" cy="3" r="3"></circle>
                        <circle id="椭圆形备份-9" cx="294" cy="3" r="3"></circle>
                        <circle id="椭圆形备份-13" cx="440" cy="3" r="3"></circle>
                        <circle id="椭圆形备份-17" cx="586" cy="3" r="3"></circle>
                        <circle id="椭圆形备份-2" cx="39" cy="3" r="3"></circle>
                        <circle id="椭圆形备份-6" cx="185" cy="3" r="3"></circle>
                        <circle id="椭圆形备份-10" cx="331" cy="3" r="3"></circle>
                        <circle id="椭圆形备份-14" cx="476" cy="3" r="3"></circle>
                        <circle id="椭圆形备份-18" cx="622" cy="3" r="3"></circle>
                        <circle id="椭圆形备份-3" cx="76" cy="3" r="3"></circle>
                        <circle id="椭圆形备份-7" cx="222" cy="3" r="3"></circle>
                        <circle id="椭圆形备份-11" cx="367" cy="3" r="3"></circle>
                        <circle id="椭圆形备份-15" cx="513" cy="3" r="3"></circle>
                        <circle id="椭圆形备份-19" cx="659" cy="3" r="3"></circle>
                        <circle id="椭圆形备份-4" cx="112" cy="3" r="3"></circle>
                        <circle id="椭圆形备份-8" cx="258" cy="3" r="3"></circle>
                        <circle id="椭圆形备份-12" cx="404" cy="3" r="3"></circle>
                        <circle id="椭圆形备份-16" cx="549" cy="3" r="3"></circle>
                    </g>
                    <g id="编组-5备份-4" transform="translate(0.000000, 144.000000)">
                        <circle id="椭圆形" cx="3" cy="3" r="3"></circle>
                        <circle id="椭圆形备份-5" cx="149" cy="3" r="3"></circle>
                        <circle id="椭圆形备份-9" cx="294" cy="3" r="3"></circle>
                        <circle id="椭圆形备份-13" cx="440" cy="3" r="3"></circle>
                        <circle id="椭圆形备份-17" cx="586" cy="3" r="3"></circle>
                        <circle id="椭圆形备份-2" cx="39" cy="3" r="3"></circle>
                        <circle id="椭圆形备份-6" cx="185" cy="3" r="3"></circle>
                        <circle id="椭圆形备份-10" cx="331" cy="3" r="3"></circle>
                        <circle id="椭圆形备份-14" cx="476" cy="3" r="3"></circle>
                        <circle id="椭圆形备份-18" cx="622" cy="3" r="3"></circle>
                        <circle id="椭圆形备份-3" cx="76" cy="3" r="3"></circle>
                        <circle id="椭圆形备份-7" cx="222" cy="3" r="3"></circle>
                        <circle id="椭圆形备份-11" cx="367" cy="3" r="3"></circle>
                        <circle id="椭圆形备份-15" cx="513" cy="3" r="3"></circle>
                        <circle id="椭圆形备份-19" cx="659" cy="3" r="3"></circle>
                        <circle id="椭圆形备份-4" cx="112" cy="3" r="3"></circle>
                        <circle id="椭圆形备份-8" cx="258" cy="3" r="3"></circle>
                        <circle id="椭圆形备份-12" cx="404" cy="3" r="3"></circle>
                        <circle id="椭圆形备份-16" cx="549" cy="3" r="3"></circle>
                    </g>
                    <g id="编组-5备份" transform="translate(0.000000, 36.000000)">
                        <circle id="椭圆形" cx="3" cy="3" r="3"></circle>
                        <circle id="椭圆形备份-5" cx="149" cy="3" r="3"></circle>
                        <circle id="椭圆形备份-9" cx="294" cy="3" r="3"></circle>
                        <circle id="椭圆形备份-13" cx="440" cy="3" r="3"></circle>
                        <circle id="椭圆形备份-17" cx="586" cy="3" r="3"></circle>
                        <circle id="椭圆形备份-2" cx="39" cy="3" r="3"></circle>
                        <circle id="椭圆形备份-6" cx="185" cy="3" r="3"></circle>
                        <circle id="椭圆形备份-10" cx="331" cy="3" r="3"></circle>
                        <circle id="椭圆形备份-14" cx="476" cy="3" r="3"></circle>
                        <circle id="椭圆形备份-18" cx="622" cy="3" r="3"></circle>
                        <circle id="椭圆形备份-3" cx="76" cy="3" r="3"></circle>
                        <circle id="椭圆形备份-7" cx="222" cy="3" r="3"></circle>
                        <circle id="椭圆形备份-11" cx="367" cy="3" r="3"></circle>
                        <circle id="椭圆形备份-15" cx="513" cy="3" r="3"></circle>
                        <circle id="椭圆形备份-19" cx="659" cy="3" r="3"></circle>
                        <circle id="椭圆形备份-4" cx="112" cy="3" r="3"></circle>
                        <circle id="椭圆形备份-8" cx="258" cy="3" r="3"></circle>
                        <circle id="椭圆形备份-12" cx="404" cy="3" r="3"></circle>
                        <circle id="椭圆形备份-16" cx="549" cy="3" r="3"></circle>
                    </g>
                    <g id="编组-5备份-5" transform="translate(0.000000, 180.000000)">
                        <circle id="椭圆形" cx="3" cy="3" r="3"></circle>
                        <circle id="椭圆形备份-5" cx="149" cy="3" r="3"></circle>
                        <circle id="椭圆形备份-9" cx="294" cy="3" r="3"></circle>
                        <circle id="椭圆形备份-13" cx="440" cy="3" r="3"></circle>
                        <circle id="椭圆形备份-17" cx="586" cy="3" r="3"></circle>
                        <circle id="椭圆形备份-2" cx="39" cy="3" r="3"></circle>
                        <circle id="椭圆形备份-6" cx="185" cy="3" r="3"></circle>
                        <circle id="椭圆形备份-10" cx="331" cy="3" r="3"></circle>
                        <circle id="椭圆形备份-14" cx="476" cy="3" r="3"></circle>
                        <circle id="椭圆形备份-18" cx="622" cy="3" r="3"></circle>
                        <circle id="椭圆形备份-3" cx="76" cy="3" r="3"></circle>
                        <circle id="椭圆形备份-7" cx="222" cy="3" r="3"></circle>
                        <circle id="椭圆形备份-11" cx="367" cy="3" r="3"></circle>
                        <circle id="椭圆形备份-15" cx="513" cy="3" r="3"></circle>
                        <circle id="椭圆形备份-19" cx="659" cy="3" r="3"></circle>
                        <circle id="椭圆形备份-4" cx="112" cy="3" r="3"></circle>
                        <circle id="椭圆形备份-8" cx="258" cy="3" r="3"></circle>
                        <circle id="椭圆形备份-12" cx="404" cy="3" r="3"></circle>
                        <circle id="椭圆形备份-16" cx="549" cy="3" r="3"></circle>
                    </g>
                    <g id="编组-5备份-2" transform="translate(0.000000, 72.000000)">
                        <circle id="椭圆形" cx="3" cy="3" r="3"></circle>
                        <circle id="椭圆形备份-5" cx="149" cy="3" r="3"></circle>
                        <circle id="椭圆形备份-9" cx="294" cy="3" r="3"></circle>
                        <circle id="椭圆形备份-13" cx="440" cy="3" r="3"></circle>
                        <circle id="椭圆形备份-17" cx="586" cy="3" r="3"></circle>
                        <circle id="椭圆形备份-2" cx="39" cy="3" r="3"></circle>
                        <circle id="椭圆形备份-6" cx="185" cy="3" r="3"></circle>
                        <circle id="椭圆形备份-10" cx="331" cy="3" r="3"></circle>
                        <circle id="椭圆形备份-14" cx="476" cy="3" r="3"></circle>
                        <circle id="椭圆形备份-18" cx="622" cy="3" r="3"></circle>
                        <circle id="椭圆形备份-3" cx="76" cy="3" r="3"></circle>
                        <circle id="椭圆形备份-7" cx="222" cy="3" r="3"></circle>
                        <circle id="椭圆形备份-11" cx="367" cy="3" r="3"></circle>
                        <circle id="椭圆形备份-15" cx="513" cy="3" r="3"></circle>
                        <circle id="椭圆形备份-19" cx="659" cy="3" r="3"></circle>
                        <circle id="椭圆形备份-4" cx="112" cy="3" r="3"></circle>
                        <circle id="椭圆形备份-8" cx="258" cy="3" r="3"></circle>
                        <circle id="椭圆形备份-12" cx="404" cy="3" r="3"></circle>
                        <circle id="椭圆形备份-16" cx="549" cy="3" r="3"></circle>
                    </g>
                    <g id="编组-5备份-6" transform="translate(0.000000, 216.000000)">
                        <circle id="椭圆形" cx="3" cy="3" r="3"></circle>
                        <circle id="椭圆形备份-5" cx="149" cy="3" r="3"></circle>
                        <circle id="椭圆形备份-9" cx="294" cy="3" r="3"></circle>
                        <circle id="椭圆形备份-13" cx="440" cy="3" r="3"></circle>
                        <circle id="椭圆形备份-17" cx="586" cy="3" r="3"></circle>
                        <circle id="椭圆形备份-2" cx="39" cy="3" r="3"></circle>
                        <circle id="椭圆形备份-6" cx="185" cy="3" r="3"></circle>
                        <circle id="椭圆形备份-10" cx="331" cy="3" r="3"></circle>
                        <circle id="椭圆形备份-14" cx="476" cy="3" r="3"></circle>
                        <circle id="椭圆形备份-18" cx="622" cy="3" r="3"></circle>
                        <circle id="椭圆形备份-3" cx="76" cy="3" r="3"></circle>
                        <circle id="椭圆形备份-7" cx="222" cy="3" r="3"></circle>
                        <circle id="椭圆形备份-11" cx="367" cy="3" r="3"></circle>
                        <circle id="椭圆形备份-15" cx="513" cy="3" r="3"></circle>
                        <circle id="椭圆形备份-19" cx="659" cy="3" r="3"></circle>
                        <circle id="椭圆形备份-4" cx="112" cy="3" r="3"></circle>
                        <circle id="椭圆形备份-8" cx="258" cy="3" r="3"></circle>
                        <circle id="椭圆形备份-12" cx="404" cy="3" r="3"></circle>
                        <circle id="椭圆形备份-16" cx="549" cy="3" r="3"></circle>
                    </g>
                    <g id="编组-5备份-3" transform="translate(0.000000, 108.000000)">
                        <circle id="椭圆形" cx="3" cy="3" r="3"></circle>
                        <circle id="椭圆形备份-5" cx="149" cy="3" r="3"></circle>
                        <circle id="椭圆形备份-9" cx="294" cy="3" r="3"></circle>
                        <circle id="椭圆形备份-13" cx="440" cy="3" r="3"></circle>
                        <circle id="椭圆形备份-17" cx="586" cy="3" r="3"></circle>
                        <circle id="椭圆形备份-2" cx="39" cy="3" r="3"></circle>
                        <circle id="椭圆形备份-6" cx="185" cy="3" r="3"></circle>
                        <circle id="椭圆形备份-10" cx="331" cy="3" r="3"></circle>
                        <circle id="椭圆形备份-14" cx="476" cy="3" r="3"></circle>
                        <circle id="椭圆形备份-18" cx="622" cy="3" r="3"></circle>
                        <circle id="椭圆形备份-3" cx="76" cy="3" r="3"></circle>
                        <circle id="椭圆形备份-7" cx="222" cy="3" r="3"></circle>
                        <circle id="椭圆形备份-11" cx="367" cy="3" r="3"></circle>
                        <circle id="椭圆形备份-15" cx="513" cy="3" r="3"></circle>
                        <circle id="椭圆形备份-19" cx="659" cy="3" r="3"></circle>
                        <circle id="椭圆形备份-4" cx="112" cy="3" r="3"></circle>
                        <circle id="椭圆形备份-8" cx="258" cy="3" r="3"></circle>
                        <circle id="椭圆形备份-12" cx="404" cy="3" r="3"></circle>
                        <circle id="椭圆形备份-16" cx="549" cy="3" r="3"></circle>
                    </g>
                    <g id="编组-5备份-7" transform="translate(0.000000, 252.000000)">
                        <circle id="椭圆形" cx="3" cy="3" r="3"></circle>
                        <circle id="椭圆形备份-5" cx="149" cy="3" r="3"></circle>
                        <circle id="椭圆形备份-9" cx="294" cy="3" r="3"></circle>
                        <circle id="椭圆形备份-13" cx="440" cy="3" r="3"></circle>
                        <circle id="椭圆形备份-17" cx="586" cy="3" r="3"></circle>
                        <circle id="椭圆形备份-2" cx="39" cy="3" r="3"></circle>
                        <circle id="椭圆形备份-6" cx="185" cy="3" r="3"></circle>
                        <circle id="椭圆形备份-10" cx="331" cy="3" r="3"></circle>
                        <circle id="椭圆形备份-14" cx="476" cy="3" r="3"></circle>
                        <circle id="椭圆形备份-18" cx="622" cy="3" r="3"></circle>
                        <circle id="椭圆形备份-3" cx="76" cy="3" r="3"></circle>
                        <circle id="椭圆形备份-7" cx="222" cy="3" r="3"></circle>
                        <circle id="椭圆形备份-11" cx="367" cy="3" r="3"></circle>
                        <circle id="椭圆形备份-15" cx="513" cy="3" r="3"></circle>
                        <circle id="椭圆形备份-19" cx="659" cy="3" r="3"></circle>
                        <circle id="椭圆形备份-4" cx="112" cy="3" r="3"></circle>
                        <circle id="椭圆形备份-8" cx="258" cy="3" r="3"></circle>
                        <circle id="椭圆形备份-12" cx="404" cy="3" r="3"></circle>
                        <circle id="椭圆形备份-16" cx="549" cy="3" r="3"></circle>
                    </g>
                    <g id="编组-5备份-8" transform="translate(0.000000, 288.000000)">
                        <circle id="椭圆形" cx="3" cy="3" r="3"></circle>
                        <circle id="椭圆形备份-5" cx="149" cy="3" r="3"></circle>
                        <circle id="椭圆形备份-9" cx="294" cy="3" r="3"></circle>
                        <circle id="椭圆形备份-13" cx="440" cy="3" r="3"></circle>
                        <circle id="椭圆形备份-17" cx="586" cy="3" r="3"></circle>
                        <circle id="椭圆形备份-2" cx="39" cy="3" r="3"></circle>
                        <circle id="椭圆形备份-6" cx="185" cy="3" r="3"></circle>
                        <circle id="椭圆形备份-10" cx="331" cy="3" r="3"></circle>
                        <circle id="椭圆形备份-14" cx="476" cy="3" r="3"></circle>
                        <circle id="椭圆形备份-18" cx="622" cy="3" r="3"></circle>
                        <circle id="椭圆形备份-3" cx="76" cy="3" r="3"></circle>
                        <circle id="椭圆形备份-7" cx="222" cy="3" r="3"></circle>
                        <circle id="椭圆形备份-11" cx="367" cy="3" r="3"></circle>
                        <circle id="椭圆形备份-15" cx="513" cy="3" r="3"></circle>
                        <circle id="椭圆形备份-19" cx="659" cy="3" r="3"></circle>
                        <circle id="椭圆形备份-4" cx="112" cy="3" r="3"></circle>
                        <circle id="椭圆形备份-8" cx="258" cy="3" r="3"></circle>
                        <circle id="椭圆形备份-12" cx="404" cy="3" r="3"></circle>
                        <circle id="椭圆形备份-16" cx="549" cy="3" r="3"></circle>
                    </g>
                </g>
                <g id="编组-28" transform="translate(156.000000, 100.000000)">
                    <rect id="矩形" fill="#FFFFFF" x="29" y="81" width="28" height="13"></rect>
                    <rect id="矩形" stroke="#FFFFFF" stroke-width="5" x="0" y="0" width="86" height="64"></rect>
                    <line x1="43" y1="66.5" x2="43" y2="89" id="路径-32" stroke="#FFFFFF" stroke-width="5"></line>
                    <line x1="85.9991035" y1="86.303655" x2="7.531753e-13" y2="86.696345" id="路径-32" stroke="#FFFFFF" stroke-width="5" stroke-linecap="round"></line>
                    <polyline id="路径-33" stroke="#FFFFFF" stroke-width="5" stroke-linecap="round" stroke-linejoin="round" points="13.6140747 44.821167 33 25.129631 51.7084045 41 72 18.4557724"></polyline>
                </g>
                <path d="M303.436656,90.8826782 C303.417593,60.9038065 279.045931,36.5856759 249.001024,36.5666134" id="路径" stroke="#FFFFFF" stroke-width="5" transform="translate(276.218840, 63.724646) rotate(-45.000000) translate(-276.218840, -63.724646) "></path>
                <g id="编组-25" transform="translate(312.000000, 46.000000)">
                    <g id="智能优化_smart-optimization" transform="translate(3.000000, 0.000000)" stroke="#FFFFFF" stroke-linecap="round" stroke-linejoin="round" stroke-width="5">
                        <path d="M93.5007047,201 C108.978935,201 135.44418,180.9 135.44418,100.5 C135.44418,20.1 108.978935,0 93.5007047,0 C78.0229555,0 51.5572298,21.4544529 51.5572298,100.5 C51.5572298,179.545643 78.0229555,201 93.5007047,201 Z" id="路径"></path>
                        <path d="M2.69021958,153.142857 C10.4293345,166.601721 41.8241021,179.086214 114.472202,136.971929 C187.119821,94.8576429 192.049344,61.3160071 184.310229,47.8571429 C176.571114,34.3982786 143.952736,22.6231243 72.528727,64.0280714 C1.10452525,105.432636 -5.0487031,139.683993 2.69021958,153.142857 Z" id="路径"></path>
                        <path d="M2.68969092,47.8571429 C-5.04923176,61.3160071 -0.119901446,94.8576429 72.5282464,136.971929 C145.176346,179.086214 176.570633,166.601721 184.309748,153.142857 C192.048863,139.683993 185.895731,105.432636 114.471241,64.0280714 C43.0472312,22.6231243 10.4288539,34.3982786 2.68969092,47.8571429 Z" id="路径"></path>
                    </g>
                    <text id="JAZ" font-family="PingFangSC-Semibold, PingFang SC" font-size="32" font-weight="500" fill="#FFFC04">
                        <tspan x="68" y="111">JAZ</tspan>
                    </text>
                    <circle id="椭圆形" fill="#FFFC04" cx="119.5" cy="12.5" r="8.5"></circle>
                    <circle id="椭圆形备份-24" fill="#FFFC04" cx="8.5" cy="122.5" r="8.5"></circle>
                    <circle id="椭圆形备份-25" fill="#FFFC04" cx="188.5" cy="149.5" r="8.5"></circle>
                </g>
            </g>
        </g>
    </g>
</svg>